/* XPM */
static char * exit_xpm[] = {
"32 32 92 2",
"  	c None",
". 	c #443A3A",
"+ 	c #352020",
"@ 	c #1D1616",
"# 	c #01090C",
"$ 	c #2A1818",
"% 	c #2E2727",
"& 	c #201919",
"* 	c #06090C",
"= 	c #07090C",
"- 	c #08090C",
"; 	c #09090C",
"> 	c #0A090C",
", 	c #0A0A0C",
"' 	c #0C0A0A",
") 	c #130A0D",
"! 	c #140B0D",
"~ 	c #150B0D",
"{ 	c #160B0D",
"] 	c #170B0D",
"^ 	c #180B0D",
"/ 	c #190B0D",
"( 	c #190B0E",
"_ 	c #1A0B0E",
": 	c #210C0E",
"< 	c #220C0E",
"[ 	c #230C0E",
"} 	c #240C0E",
"| 	c #250C0F",
"1 	c #260C0F",
"2 	c #270D0F",
"3 	c #280D0F",
"4 	c #2E0D0F",
"5 	c #2F0D0F",
"6 	c #300D0F",
"7 	c #300E0F",
"8 	c #310E0F",
"9 	c #310E10",
"0 	c #051015",
"a 	c #350E10",
"b 	c #360E10",
"c 	c #370E10",
"d 	c #380E10",
"e 	c #3D0F10",
"f 	c #3E0F11",
"g 	c #071015",
"h 	c #451011",
"i 	c #461011",
"j 	c #4B1012",
"k 	c #4C1012",
"l 	c #081015",
"m 	c #531112",
"n 	c #541112",
"o 	c #591213",
"p 	c #5A1213",
"q 	c #0A1015",
"r 	c #621314",
"s 	c #631314",
"t 	c #342828",
"u 	c #611213",
"v 	c #100F14",
"w 	c #661313",
"x 	c #691313",
"y 	c #160E13",
"z 	c #6E1414",
"A 	c #281D1D",
"B 	c #701414",
"C 	c #1C0E12",
"D 	c #721414",
"E 	c #3E1E1E",
"F 	c #220D11",
"G 	c #280C11",
"H 	c #2E0C10",
"I 	c #340B0F",
"J 	c #3A0B0E",
"K 	c #400A0D",
"L 	c #46090D",
"M 	c #4D090C",
"N 	c #53080B",
"O 	c #59070A",
"P 	c #5E0709",
"Q 	c #640608",
"R 	c #6A0608",
"S 	c #710507",
"T 	c #861717",
"U 	c #770406",
"V 	c #211414",
"W 	c #7D0405",
"X 	c #3C2D25",
"Y 	c #830304",
"Z 	c #890203",
"` 	c #8F0203",
". + + + + . . + + + + . . . + + + + . . + . . . . . . . + + + . ",
"@ @ @ @ @ @ @ @ @ @ @ @ @ @ @ @ @ @ @ @ @ @ @ @ @ @ @ @ @ @ @ @ ",
". . . . . . . . . . . . . . # # # # . . . . . $ % . . . . . . . ",
". . & & & & . . . . . * * = = - - ; ; > , . . . % . & & & & . . ",
". @ + + ' ' . . . ) ) ! ! ~ { { ] ] ^ ^ / ( _ . . . @ ' + + @ . ",
". . & + ' @ . . : : < < [ [ } } | | 1 1 2 2 3 3 . . @ ' ' & . . ",
". . . . . . 4 5 5 6 7 8 9 0 0 0 0 0 0 a a b b c c d . . . . . . ",
"@ @ @ @ @ @ e e f f g g g g g g g g g g g g h h i i @ @ @ @ @ @ ",
". . . . . . j j k l l l l l l l l l l l l l l m n n . . . . . . ",
". . . . . . o p q q q q q q q q q q q q q q q q r s . . . . . . ",
"t . . . . . u v v v v v v v v v v v v v v v v v v w . . . . . . ",
". . . . . . x y y y y y y y y y y y y y y y y y y z . . . . . . ",
"  A A A A A B C C C C C C C C C C C C C C C C C C D A A A A A   ",
". @ E . E . D F F F F F F F F F F F F F F F F F F D . @ @ @ @ . ",
". @ . + E . D G G G G G G G G G G G G G G G G G G D . E + . @ . ",
". @ . + E . D H H H H H H H H H H H H H H H H H H D . E + . @ . ",
". @ . + E . D I I I I I I I I I I I I I I I I I I D . E + . @ . ",
". @ + + E . D J J J J J J J J J J J J J J J J J J D . E + . @ . ",
". @ . + E . D K K K K K K K K K K K K K K K K K K D . E + . @ . ",
". @ + + E . D L L L L L L L L L L L L L L L L L L D . E + + @ . ",
". @ + + E . D M M M M M M M M M M M M M M M M M M D . E + . @ . ",
". @ . + E . D N N N N N N N N N N N N N N N N N N D . E + . @ . ",
". @ . + E . D O O O O O O O O O O O O O O O O O O D . E + . @ . ",
". @ . + E . D P P P P P P P P P P P P P P P P P P D . E + . @ . ",
". @ . . E . D Q Q Q Q Q Q Q Q Q Q Q Q Q Q Q Q Q Q D . E . . @ . ",
". . . . . . D R R R R R R R R R R R R R R R R R R D . . . . . . ",
". @ . . E . D S S S S S S S S S S S S S S S S S S D . E . . @ . ",
". @ + . E . T U U U U U U U U U U U U U U U U U U D . E . + @ . ",
". @ V V E . T W W W W W W W W W W W W W W W W W W T . E V V @ . ",
". @ X + E . T Y Y Y Y Y Y Y Y Y Y Y Y Y Y Y Y Y Y T . E + X @ . ",
". @ + . E . T Z Z Z Z Z Z Z Z Z Z Z Z Z Z Z Z Z Z T . E . + @ . ",
". . . . . . T ` ` ` ` ` ` ` ` ` ` ` ` ` ` ` ` ` ` T . . . . . . "};
