/* XPM */
static char *_c6924bab556441ddb4775dda0abeaf8SKVjexoashGvfc59[] = {
/* columns rows colors chars-per-pixel */
"64 64 209 2 ",
"   c #030605",
".  c #0A0606",
"X  c #0E0A07",
"o  c #040709",
"O  c #0C0709",
"+  c #050A0A",
"@  c #0B0A0D",
"#  c #1F0707",
"$  c #140907",
"%  c #1C0A06",
"&  c #13070B",
"*  c #1A070D",
"=  c #140B0C",
"-  c #1B0C0C",
";  c #15100D",
":  c #1C110E",
">  c #050F13",
",  c #0C0E14",
"<  c #0A0E19",
"1  c #130E13",
"2  c #1B0E12",
"3  c #1D0F18",
"4  c #051115",
"5  c #0B1013",
"6  c #061119",
"7  c #141113",
"8  c #1C1314",
"9  c #161817",
"0  c #1D1916",
"q  c #161719",
"w  c #1D161A",
"e  c #161919",
"r  c #1D1A1A",
"t  c #210706",
"y  c #230A06",
"u  c #2B0B07",
"i  c #230D0E",
"p  c #2B0C0E",
"a  c #3C0906",
"s  c #340B0E",
"d  c #3A0B0E",
"f  c #370A07",
"g  c #23110E",
"h  c #2D110E",
"j  c #34110F",
"k  c #240C11",
"l  c #2C0C11",
"z  c #320C11",
"x  c #3C0F10",
"c  c #241414",
"v  c #2B1413",
"b  c #221917",
"n  c #231619",
"m  c #2C1419",
"M  c #251C1C",
"N  c #2B1C1D",
"B  c #351313",
"V  c #3B1314",
"C  c #321817",
"Z  c #35131A",
"A  c #3A131A",
"S  c #331D1D",
"D  c #391D1D",
"F  c #25201D",
"G  c #2A201E",
"H  c #32211F",
"J  c #251D22",
"K  c #2A1E21",
"L  c #351E21",
"P  c #3A1E22",
"I  c #252221",
"U  c #2D2323",
"Y  c #2C2B2A",
"T  c #252B29",
"R  c #332324",
"E  c #3B2526",
"W  c #322827",
"Q  c #3A2926",
"!  c #362628",
"~  c #3B2529",
"^  c #352C2B",
"/  c #3E2F2E",
"(  c #3B2C2C",
")  c #36322E",
"_  c #35312F",
"`  c #39322F",
"'  c #3D312F",
"]  c #39302E",
"[  c #2D2E30",
"{  c #352E32",
"}  c #3A2E35",
"|  c #3D2F31",
" . c #2D3232",
".. c #373131",
"X. c #353334",
"o. c #363333",
"O. c #3A3231",
"+. c #3E3030",
"@. c #3D3232",
"#. c #3A3533",
"$. c #393234",
"%. c #3C3232",
"&. c #343837",
"*. c #3D3936",
"=. c #3C3438",
"-. c #3E3B39",
";. c #4D0707",
":. c #400807",
">. c #4E070B",
",. c #44090D",
"<. c #4C090B",
"1. c #5E0706",
"2. c #500907",
"3. c #5D0907",
"4. c #55070A",
"5. c #5B0709",
"6. c #53090A",
"7. c #5A0809",
"8. c #440E14",
"9. c #5E0C10",
"0. c #510F19",
"q. c #421413",
"w. c #4E1011",
"e. c #401A17",
"r. c #491915",
"t. c #4D141A",
"y. c #5A1216",
"u. c #53131C",
"i. c #5C131B",
"p. c #5C1A1E",
"a. c #640606",
"s. c #6C0607",
"d. c #6B0608",
"f. c #630B0C",
"g. c #6A0A09",
"h. c #730505",
"j. c #7A0405",
"k. c #70070B",
"l. c #740A0A",
"z. c #7C0A0A",
"x. c #670F14",
"c. c #6B0F14",
"v. c #690F18",
"b. c #740E12",
"n. c #641117",
"m. c #6B1016",
"M. c #641119",
"N. c #6C1119",
"B. c #631C1F",
"V. c #6B1C1F",
"C. c #731216",
"Z. c #7D1316",
"A. c #7C1319",
"S. c #511320",
"D. c #5D1320",
"F. c #551B23",
"G. c #5C1D25",
"H. c #5B1E2A",
"J. c #651F24",
"K. c #6A1D23",
"L. c #641F2A",
"P. c #412626",
"I. c #472825",
"U. c #422529",
"Y. c #422C2D",
"T. c #4A2D2D",
"R. c #572026",
"E. c #562E2D",
"W. c #5A2F2B",
"Q. c #45322E",
"!. c #49312D",
"~. c #53312E",
"^. c #5A312C",
"/. c #412D30",
"(. c #4B2E32",
"). c #552E31",
"_. c #582E32",
"`. c #453230",
"'. c #433334",
"]. c #4B3333",
"[. c #443936",
"{. c #4B3935",
"}. c #433539",
"|. c #4A3538",
" X c #433B39",
".X c #433E3A",
"XX c #453E3D",
"oX c #443B3A",
"OX c #4A3B3B",
"+X c #533331",
"@X c #593130",
"#X c #533638",
"$X c #632126",
"%X c #6D2026",
"&X c #63212A",
"*X c #69212A",
"=X c #752123",
"-X c #732228",
";X c #782225",
":X c #41403C",
">X c #44413D",
",X c #4A413E",
"<X c #4A3E42",
"1X c #444041",
"2X c #830305",
"3X c #8B0304",
"4X c #820B0A",
"5X c #821416",
"6X c #811318",
/* pixels */
".X%.W U R R R U U W =.XXOX'.( R R R H S H Q '.OX{.{.{.`.E H S R H G H Q `.{.[.'.! ^ +. XXX:XXX:X.X X.X.X X X[.|.! E R R W ^ =.XX",
"` ^ U N N N N N N U ^ O.O.^ ! K N N N G N R W ( ( ' ( ( ! S S S N N G W ( ( ( ( G W ^ ` ) ) ^ ^ #.O.) ` ` ` ` ( K L L N K U ^ o.",
"F M b c n n n c c b M M N M b n c n b b b b b M M M G M b b b b M b b M N N N b c b M K K M I I G M M M F F M b n n n n n b M I ",
"F M M N N N N N N F I M M M N N N N N M M M I U F I I r 9 7 7 9 9 7 7 9 M I K M U K K M J M M M n 0 b M F F F M N N N N N M M F ",
") ` ` ' +.+.+.O.O.O.....O.O.+.+.+.+.$...o.o.o.&.&.&.&.T e @ + @ + + @ e Y &.=.$.=.%.} } } ^ K n U U ^ ..o.#.O.O.+.+.( | +.+.O.) ",
".X XoX[.'.+.+.+.%.#.#.*.XX1XOXoXoXoXXX1X1X-.&.[  . . .T 5 + o + +   + 7 I X.o.{ { $.oX<X<X}.{ K U ^ =.-.*.&.#.O.+.+.+.'.oX X X.X",
" X X'.+.! R U U U F I Y =.XXOXoXoX X-..X-...I 9 9 9 q 7 @ o o @ + o o @ 7 w w 9 8 K | oX<X}.'.| U ^ #.#.Y I I U U U U W +.[.[. X",
" X X'.W N b c b 0 8 9 F ^ oXoXoXOX[.%.#...U 9   . . O O O @ @ @ @ @ O O O O & & . 8 W | ( ( '.OXW %. XO.U 0 9 0 b c c G ^ '. X X",
" XO.U b N U G b 8 = X 0 ^ OXOXOX,X` N 8 8 : = $ $ $ $ & & & & & & & & = & = = = = - 8 c c N Y.OX|.OXoX^ M 8 7 7 M U U N M G ` ,X",
"[.O.W G N G G M ; X X 0 ( OXOX|.Q.H g - - = = $ = = - - - - - * 2 2 - - - - - - - - : - y v R Q.].OXOX+.G 7 = = n M M N U W ` [.",
"XXoX=.W U N N G = X = M ` OXOX`.H v % % % - - - - - - i k k k - 2 2 2 2 8 8 - - g g g % % y v S ].#X{.( N = O O 2 8 n U ^ %. X X",
" XXX XO.W U U U b b M U ( /.Y.E v i y y i g g c c 2 2 2 2 2 2 2 2 2 2 2 2 8 c c c c g y y y h v I.I.T.Q R M w 9 0 w M W %.oX X X",
"-.XXXX X=.=.'.[.O.O.` ( E S Z Z p p i i c c c c c 8 1 = = 1 1 1 1 1 1 1 1 8 0 c c c v v v v p s V V D E ( O.O...} $.%.}.oX XXX X",
"..O.O.O.O.%.+.+.^ ( ( ! m v l z z l l v v k 2 8 8 7 , , , , , , , , , @ , 1 7 0 8 g k v B B B z s s B C E ( O...$.=.=.=.%.O.$.%.",
"J J M M M M M b N G N m m l B x A Z Z m k - 2 8 7 5 , 4 4 4 4 4 4 4 > > , 5 1 7 2 - i l x A A x V B B C S U U U M J J J J M J I ",
"M M J M M K G M b M N m Z A A A Z Z m k 2 & = 7 , , 4 4 4 4 4 4 4 4 4 6 4 5 , , 1 & * i l A A A V q.e.V C N b M J J J J M M M M ",
"O.O.O.O.+.O.O.O.+.%.Q.P.t.8.V D L K c 1 = 1 , , 5 4 4 4 4 4 6 6 4 4 4 4 4 4 , , , , 1 1 2 n L P e.q.w.t.I.Q.Q.' ....O.$.O.O.O.O.",
"XX X X XOXoX.X.X[.[.[.T.F.0.V S N w 1 1 , 5 5 5 4 4 4 4 , , < , < 6 6 4 4 4 4 , , , , 1 1 3 n S D r.y.p.E.{.{.[..X-.oXoXoXoXoXoX",
" X XoXoXoXoX.X-. XOXOXT.G.u.e.C c 2 1 @ , 5 5 5 4 4 4 , , , , , < , , 4 4 4 5 5 , , , 1 1 2 3 c D r.i.G.~.{.OX X-.-. XoXoXoXoXoX",
"=.[. XoXOXoX.X.XoX[.[.T.G.u.V m - 1 = , , , , 5 5 5 , , , , , , , , , , , 5 5 , , , 1 1 1 1 2 k B q.i.G.!.{.[. X.X.XoXoXoXoXoXoX",
"^ O.'.oXOXOX.X-.oX[.[.T.F.t.j g - = 1 1 , , 5 , 5 5 , , , , 1 1 , , , , , 5 5 5 5 , 1 1 1 1 1 - p x u.G.T.[.[.[..X.XoXoXoXoX X X",
"^ ` %.'.oXoX X*. X X[.].G.t.s % - 1 1 1 7 7 , , 5 5 1 , 1 1 1 1 1 1 1 1 1 1 5 5 , 1 1 1 1 1 2 - t s u.H.].[. X X-.-. XoXoX X[.[.",
" X XoXoXOXoX.X XoX[.[.!.R.t.p % - 1 7 7 7 7 7 7 7 7 7 7 1 1 2 2 1 7 1 7 7 7 7 7 7 1 1 1 2 2 2 - # s u.H.].[.oXoX.X.XoXoXoXXXXXXX",
" X[.=.+.`.+.%.=.+.Q.Q.T.R.t.s % - 1 2 2 1 1 7 7 7 7 1 2 2 2 2 2 2 2 2 2 2 7 7 7 7 1 1 1 2 2 2 - y z u.H.(.'.+.%.....+.'.+.=.=.[.",
",X` U U R R U G R H H E F.u.j % - 2 2 2 2 2 2 2 2 2 2 2 2 2 2 2 2 2 2 2 2 2 2 2 2 2 2 2 2 2 2 2 y z u.F.P.W R U U U U R U U ^ XX",
"XX^ N b N R W U N G H P.F.u.j y i 2 2 2 2 2 2 2 2 2 2 2 k k k k k i k k 2 2 2 2 2 2 2 2 2 2 2 i y B u.H.P.R N b M M n n N G ^  X",
">X^ b c N ! ( ( R R Q I.G.u.B y i i i i i i i i k k i i k i k i i i i i i i i i - - i i k k k i y B u.H.T.! m c b 8 8 c n M ^ .X",
">X) M b R Y.+.+.E U.`.).&Xi.B u i k k k k k k k k k k k k k k i i i i i i k k k k k k k k k k i y s u.&X+XY.H n b c N N n M ^ XX",
".XO.G b Q `.( ! R U.]._.L.i.d u p l l l l l l l l l l l l k l k k i i i i k k k k k k k k k k p u a y.&X+X'.E N N U ( ! M M O.XX",
"-.#.G N /.'.! L S E T._.L.i.x u p l l l l l l l l l l l l l l p p p p p p p l l l l l l l l l p u a y.J.~.Q.E S R W }.'.N M O.XX",
"-.#.G b `.{.! L S P.T._.*XD.q.s p l l l l l l l p p p p p p p p p p p p p p p p l l l l l l l p u d y.J.E.!.E S R ! }.'.M M O..X",
"*.#.M b | |.! L P P.T.E.&Xi.8.f s z z z z z z z z z l l l l l l s p p p l l z z z z z z l l l s f :.y.L.~.Q.E H R W '.`.M M =..X",
"oX^ M G `.'.~ S P P.Q.+X&Xi.,.f s s z s z s z s s s s s s s s s s s s s s s s s s s z z z z z s a ,.y.$X~.Q.E L S ~ `.( G F `  X",
" X] M M ( ( E L P P.Q.~.$Xi.<.a d s s s s s s s s s s s s s s s s s s s s s s s s s s s s s s d a <.i.$X~.Q.E L L ( '.' G F ]  X",
" X` M b R ~ R L P P.Q.~.$Xi.<.a d d d d d d d d d d d d d d d d d d d d d d d d d d d d d d d d a <.i.$X~.Q.E L L ( |.+.G F `  X",
" X` M b W ~ R L P P.Q.~.$Xi.<.a d d d d d d d d d d d d d d d d d d d d d d d d d d d d d d d f a <.y.$X~.Q.E S L ( '.+.G F `  X",
"OX] F M ( Y.E L P P.Q.~.$Xi.<.:.d d d d d d d d d d d d d d d d d d d d d d d d d d d d d d d d :.<.i.$X~.Q.E D L ~ `.( M F `  X",
"[.] F M ( /.E L P P.Q.~.$XM.<.:.,.,.,.,.,.,.,.,.,.,.,.,.,.,.,.,.,.,.,.,.,.,.,.,.,.,.,.,.,.,.,.,.:.<.M.$X~.Q.P.D R E ( W M F `  X",
" X` M b ! ( R L P P.Q.~.L.M.6.:.:.,.,.,.,.,.,.,.,.,.,.,.,.,.,.,.,.,.,.,.,.,.,.,.,.,.,.,.,.,.,.:.:.6.M.$X~.Q.P.D R R ~ W b F ` oX",
" X` M 8 N R R R P P.Q.~.L.M.6.<.,.,.,.,.,.,.,.,.,.,.,.,.<.,.,.,.,.,.,.,.,.,.,.,.<.,.,.,.,.,.,.,.<.6.n.L.~.Q.P.D R R ! U b F ` oX",
" X+.M 8 U R L R L P.Q.~.L.M.6.<.<.<.<.<.<.<.<.<.<.<.<.<.<.<.<.<.<.<.<.<.<.<.<.<.<.<.<.<.<.<.<.<.<.6.n.J.~.Q.P.S L R '.| M M +.OX",
"oX+.M 0 W W R R L P.Q.~.L.M.6.;.>.>.>.>.>.>.>.>.>.>.>.>.>.>.>.>.>.>.>.>.>.>.>.>.>.>.>.>.>.>.>.>.>.6.v.K.~.Q.P.S L ! '.| M M O.oX",
"oXO.M M ^ | E R L P.Q.~.K.m.7.2.6.6.2.6.2.6.2.6.2.6.2.6.2.6.2.6.2.6.2.6.2.6.2.6.2.6.2.6.2.6.2.6.2.7.c.K.E.!.P.S R ! }.%.M M O.oX",
"oX` M M +.'.! R L P.Q.E.K.v.7.6.6.4.4.4.4.4.4.4.4.4.4.4.4.4.4.4.4.4.4.4.4.4.4.4.4.4.4.4.4.4.4.6.6.7.c.K.E.!.P.L L ! }.+.M M O.oX",
"oXO.M F %.}.! L P P.!.E.K.m.7.6.7.7.7.7.7.7.7.7.7.7.7.7.7.7.7.7.7.7.7.7.7.7.7.7.7.7.7.7.7.7.7.7.6.7.c.K.W.!.P.L L ! }.%.M M O.oX",
"oXO.M M %.}.! S P P.!.E.K.m.9.6.7.7.7.7.7.7.7.7.7.7.7.7.7.7.7.7.7.7.7.7.7.7.7.7.7.7.7.7.7.7.7.7.7.7.c.K.W.!.P.L L ! }.%.M M O.oX",
" XO.M M +.}.( R P P.!.E.K.m.9.7.7.5.5.5.5.5.5.5.5.5.5.5.5.5.5.5.5.5.1.5.1.5.1.5.1.5.1.5.1.5.1.5.7.7.c.K.E.!.P.L R ( }.%.J J O.oX",
" XO.M M O.'.W ! L P.Q.E.K.m.f.5.1.1.1.1.1.1.1.1.1.1.1.1.1.1.1.1.1.1.1.1.1.1.1.1.1.1.1.1.1.1.1.1.3.f.c.K.E.Q.P.L E ( }.+.J M O.XX",
":X) M b ( oX[.| R ~ Q.~.*XN.f.a.a.a.a.a.a.a.a.a.a.a.a.a.a.a.a.a.a.a.a.a.a.a.a.a.a.a.a.a.a.a.a.a.a.f.m.$X+XQ.E R | }.oX( M M O.:X",
"-.#.W R `. X X=./ Y.`.~.$Xm.g.a.s.a.s.a.s.a.s.a.s.a.s.a.s.a.s.a.s.a.s.a.s.a.s.a.s.a.s.a.s.a.s.a.a.g.x.J.+X'./ / =.-.oX`.W W #.-.",
"*.-.+.( |.OX XoX'.].|.~.J.c.g.s.d.d.d.d.d.d.d.d.d.d.d.d.d.d.d.d.d.d.d.d.d.d.d.d.d.d.d.d.d.d.d.s.s.g.x.G.+X[.`.'. X XoXoX| +. X-.",
"-..X`.`.|.OX XoX].].|.~.J.c.d.s.s.d.d.d.d.d.d.d.d.d.d.d.d.d.d.d.d.d.d.d.d.d.d.d.d.d.d.d.d.d.d.s.s.g.x.B.+X[.`.]. X XoXoX`.+.XX-.",
"-.#.! ! `.OX X'.Y.Y.`.~.K.C.k.s.s.s.s.s.s.s.s.s.s.s.s.s.s.s.s.s.s.s.s.s.s.s.s.s.s.s.s.s.s.s.s.s.s.d.c.B.+X'.Y./.=. XOX`.R ! =.-.",
".X` N m ( [. X}.~ U.T.~.%XC.l.h.h.h.h.h.h.h.h.h.h.h.h.h.h.h.h.h.h.h.h.h.h.h.h.h.h.h.h.h.h.h.h.h.h.l.c.K.+X`.~ ~ }. XoX( m N O..X",
".X` N n R ' =.'.~ U.Q.@X-XA.l.h.h.h.h.h.h.h.h.h.h.h.h.h.h.h.h.h.h.h.h.h.h.h.h.h.h.h.h.h.h.h.h.h.h.l.b.V.~.Q.E E }.=.( R v N O.XX",
"[.` N c N R W +.~ U.`.@X-XZ.z.j.j.j.j.j.j.j.j.j.j.j.j.j.j.j.j.j.j.j.j.j.j.j.j.j.j.j.j.j.j.j.j.j.h.z.b.K.^.Q.U.E | W R m c N %.oX",
".X` N c n N b N S P.!.^.;XA.z.j.j.j.j.j.j.j.j.j.j.j.j.j.j.j.j.j.j.j.j.j.j.j.j.j.j.j.j.j.j.j.j.j.j.z.Z.=X^.!.P.L N b n n c N %.XX",
" X` N c N N b N L P.!.^.;X6Xz.j.j.2X2X2X2X2X2X2X2X2X2X2X2X2X2X2X2X2X2X2X2X2X2X2X2X2X2X2X2X2X2Xj.j.z.Z.=X^.!.U.L N b N m c N |  X",
".X` N v R W U N L U.!.^.;X6X4Xj.2X2X2X2X2X2X2X2X2X2X2X2X2X2X2X2X2X2X2X2X2X2X2X2X2X2X2X2X2X2X2X2Xj.z.Z.;X^.!.P.L N U R L m N +.oX",
">XO.N n R ( ^ W P U.!.W.;X5X4Xj.2X2X2X2X2X2X2X2X2X2X2X2X2X3X2X2X2X2X2X2X2X3X2X2X2X2X2X2X2X2X2X2Xj.4X5X=XW.!.P.E W W ( R m N +.XX",
"XX` N n R ( ` +.E U.T.W.=X5X4X2X3X3X3X3X3X3X3X3X3X3X3X3X3X3X3X3X3X3X3X3X3X3X3X3X3X3X3X3X3X3X3X3X2X4X5X=XW.!.U.E +.^ ( R v N O.XX",
".XO.U N ! ` #.[.Q Y.!.W.=X5X4X2X3X3X3X3X3X3X3X3X3X3X3X3X3X3X3X3X3X3X3X3X3X3X3X3X3X3X3X3X3X3X3X3X2X4X5X=XW.!.T.Q '.O.( ! N R %.oX",
"-. X+.( `.'.*. X`.].!.^.=X5X4X2X3X3X3X3X3X3X3X3X3X3X3X3X3X3X3X3X3X3X3X3X3X3X3X3X3X3X3X3X3X3X3X3X2X4X5X=X^.!.].].oX*.'.`.( `.oXoX",
"-.XXoXOXOXoX*. X|.{.{.^.=X5X4X2X3X3X3X3X3X3X3X3X3X3X3X3X3X3X3X3X3X3X3X3X3X3X3X3X3X3X3X3X3X3X3X3X2X4X5X=X^.{.#XOXoX*.oXOXOXOX<X-."
};
