/* XPM */
static char *_af39d050aa14379c934fe92237c385dCpldRtCUqM2QrlBd[] = {
/* columns rows colors chars-per-pixel */
"64 64 244 2 ",
"   c #0E0000",
".  c #150303",
"X  c #1C0204",
"o  c #1E0508",
"O  c #1D0A0B",
"+  c #230102",
"@  c #2C0205",
"#  c #240C04",
"$  c #220609",
"%  c #2D030C",
"&  c #240B0D",
"*  c #2A0B0C",
"=  c #2B0E06",
"-  c #320301",
";  c #3C0405",
":  c #320B00",
">  c #32030D",
",  c #3A040A",
"<  c #330C0E",
"1  c #3B080C",
"2  c #3B0905",
"3  c #2A120D",
"4  c #24120B",
"5  c #32100F",
"6  c #260E11",
"7  c #2A0E12",
"8  c #2C0511",
"9  c #330313",
"0  c #3B0613",
"q  c #330B14",
"w  c #390D14",
"e  c #320B19",
"r  c #370719",
"t  c #251212",
"y  c #2B1214",
"u  c #2F1518",
"i  c #271418",
"p  c #321314",
"a  c #3B1314",
"s  c #32151A",
"d  c #3A1219",
"f  c #351B1C",
"g  c #3A1A1D",
"h  c #3B1B14",
"j  c #30231D",
"k  c #371D20",
"l  c #3B1D22",
"z  c #3F1D2B",
"x  c #3B2224",
"c  c #3D2629",
"v  c #3A2727",
"b  c #440404",
"n  c #4D0B02",
"m  c #43030C",
"M  c #4C030B",
"N  c #430D0E",
"B  c #460802",
"V  c #580603",
"C  c #49140C",
"Z  c #55150F",
"A  c #4B0213",
"S  c #450B14",
"D  c #4B0C13",
"F  c #430C19",
"G  c #4C0E1D",
"H  c #460515",
"J  c #550D1D",
"K  c #5C0C1C",
"L  c #550B17",
"P  c #45111A",
"I  c #4E141D",
"U  c #481A18",
"Y  c #53121C",
"T  c #571618",
"R  c #620A06",
"E  c #660B1C",
"W  c #6C161D",
"Q  c #621418",
"!  c #79141D",
"~  c #7C0C0B",
"^  c #4C2217",
"/  c #61251B",
"(  c #4A1524",
")  c #431E23",
"_  c #4B1D21",
"`  c #471023",
"'  c #5C1122",
"]  c #561426",
"[  c #5F1E32",
"{  c #510D23",
"}  c #680E22",
"|  c #700A20",
" . c #641524",
".. c #6A1322",
"X. c #6A152A",
"o. c #661A26",
"O. c #731124",
"+. c #7D1325",
"@. c #761D2C",
"#. c #791B27",
"$. c #711D33",
"%. c #432226",
"&. c #4A2225",
"*. c #44252A",
"=. c #4C252B",
"-. c #432A2B",
";. c #4B2B2D",
":. c #4A2826",
">. c #59252A",
",. c #532B2C",
"<. c #5A2A2D",
"1. c #552326",
"2. c #4D312F",
"3. c #45342C",
"4. c #4C2D31",
"5. c #532D32",
"6. c #5A2D31",
"7. c #4D3435",
"8. c #4C3A35",
"9. c #4E3538",
"0. c #4E3A3B",
"q. c #463934",
"w. c #523535",
"e. c #5B3434",
"r. c #523836",
"t. c #52363A",
"y. c #5E3539",
"u. c #543A3B",
"i. c #5A3C3D",
"p. c #53302C",
"a. c #66282C",
"s. c #742128",
"d. c #67362F",
"f. c #793126",
"g. c #652E31",
"h. c #7D2334",
"j. c #7B233C",
"k. c #633234",
"l. c #6B3335",
"z. c #653934",
"x. c #62363B",
"c. c #643A3B",
"v. c #6B3B3E",
"b. c #6C3A37",
"n. c #733634",
"m. c #7C3B3D",
"M. c #76373B",
"N. c #4D423D",
"B. c #5B433D",
"V. c #5A483E",
"C. c #63483A",
"Z. c #573C41",
"A. c #5A3D42",
"S. c #5A3741",
"D. c #643E44",
"F. c #6B3C42",
"G. c #6D3E48",
"H. c #7C3D41",
"J. c #743D42",
"K. c #5E4544",
"L. c #5D4A44",
"P. c #5E454A",
"I. c #564C49",
"U. c #5D4B4A",
"Y. c #564644",
"T. c #58514A",
"R. c #5F5150",
"E. c #5F4852",
"W. c #614746",
"Q. c #6A4445",
"!. c #624946",
"~. c #624749",
"^. c #6D434B",
"/. c #624949",
"(. c #65494A",
"). c #634A4A",
"_. c #694B4C",
"`. c #7C4345",
"'. c #72444B",
"]. c #7A4949",
"[. c #774545",
"{. c #624552",
"}. c #654C51",
"|. c #6B4A51",
" X c #685050",
".X c #704D54",
"XX c #8A1A12",
"oX c #82281A",
"OX c #861928",
"+X c #9F1E34",
"@X c #8E1C2E",
"#X c #862729",
"$X c #892635",
"%X c #912E3C",
"&X c #982837",
"*X c #86353E",
"=X c #983138",
"-X c #A0242F",
";X c #A72A39",
":X c #B32B37",
">X c #AC3234",
",X c #A5313E",
"<X c #AD333D",
"1X c #AC3B3D",
"2X c #B13631",
"3X c #82413F",
"4X c #AE4F3D",
"5X c #BB4738",
"6X c #823E42",
"7X c #8C3F44",
"8X c #923445",
"9X c #9F3A4A",
"0X c #9C2F42",
"qX c #A72E42",
"wX c #A53242",
"eX c #A83A49",
"rX c #BE3E4D",
"tX c #AC3F54",
"yX c #C73C47",
"uX c #DB3C52",
"iX c #824243",
"pX c #884647",
"aX c #925655",
"sX c #AA4143",
"dX c #B54847",
"fX c #B8595A",
"gX c #A54350",
"hX c #B65D61",
"jX c #C5424D",
"kX c #C64446",
"lX c #D94D56",
"zX c #DF5B5C",
"xX c #D25B5D",
"cX c #CD5050",
"vX c #E35458",
"bX c #EB495E",
"nX c #D4645C",
"mX c #E7665A",
"MX c #DF5E63",
"NX c #E65966",
"BX c #EA7068",
"VX c #F47064",
"CX c #ED737A",
"ZX c #F76967",
/* pixels */
"Q.Q.W.L.L.L.L.L.L.L.W.W.W.W.!.!.!.!.!.K.Y.I.I.I.L.W.W.!.(.W.K.L.U.L././.~.W.~.~.~.~.W.W.W.W.Q.Q.W.W.W.W.W.W.W.W.W.W.W.W.W.W.W.W.",
"Q.Q.W.L.L.L.L.L.W.W.W.W.W.W.W.L.V.L.W.W.U.U.U.Y.W.Q.!.!.W.Y.K.P.K.Y.K.K.W./.(._.~.~.~.~.W.W.W.W.W.W.W.W.W.W.W.W.W.W.W.W.W.W.W.W.",
"Q.W.K.W././.L.L./.W.K.W.K.W.L.L.L.L.W.W.~.~.~.W.W.Q.!.U.U.U.U./.(.(././././.~.P.~.~.~.).Q.W.W.W.W.W.W.W.W.W.W.W.W.W.W.W.W.W.W.W.",
"Q.W.K.B.u.8.8.7.7.i.~.~.).W.U./.).W.K.~.~.D.y.6.e.w.8.q.3.0.K.P.K.K.W./.(./.~.K.~.~.~.~.Q.Q.Q.Q.W.W.W.W.W.W.W.W.W.W.W.W.W.W.W.W.",
"Q.W.W.u.x t t t 7 l S._.|./.P.~.G.D.U.R.(.y.I 1 = # 4 # * l A.}.W.W.).).)./.).).~.~.K.K.K.K.W.W.W.W.W.W.W.W.W.W.W.W.W.W.W.W.W.W.",
"W.W./.w.t . X X + q *.5.t.i.K._.'.^.U.I.i.&.D M b C ^ h @ * *.7.u.r.w.7.7.u.K.(.(.(./.~.W.W.W.W.W.W.W.W.W.W.W.W.W.W.W.W.W.W.W.W.",
"W.K.).r.& X & 8 8 q q q d %.t.~.~.(.U.0.x a T OX,XdXhXpXh X & & * * * * y l r.~.K.~././.)././.W.W.W.W.W.W.W.W.W.W.W.W.W.W.W.W.W.",
"W.L./.u.t X 7 q e r % @ % w =.t.9.Y.K.3.y - W ,XyXNXCXfX^ + 5 h p p p * * p -.i.i.u.K.K././.W.W.W.W.W.W.W.W.W.W.W.W.W.W.W.W.W.W.",
"W.W./.7.7 X 8 e r 9 > 0 F P F % t j N.8.3 - W ;XuXbXNXsXZ N l.`.c.e.w.,.%.s y y 6 x u./.(././.~./.W.W.W.W.W.W.W.W.W.W.W.W.W.W.W.",
"W.W.U.u.x 7 8 8 9 0 F I Y I S , w &.;.;.a D $X<X:X:X>X#XZ T pXaX].Q.Q.c.,.h * $ & s -.7.r.u.K./.W.K.K.W.W.W.W.W.W.W.W.W.W.W.W.W.",
"W.K.K.K.Z.*.7 % 9 F J J '  .o.s.8X*XY D Q h.tX,X! V n Z / n.iX`.g.<.,.,.,.%.g g s s u y y x u._.W./.W.W.W.W.W.K.W.W.W.W.W.W.W.W.",
"W.W.K./.}.7.7 @ 0 G ' K ..#.#X%X9X$XM b ..%XeX%XZ ; : ^ n.pXiXl.g.1._ _ &.&.=.;.*.l y $ X 7 *.i.K.W./.W.W.W.W.K.W.W.W.W.W.W.W.W.",
"Q.Q.K./.).7.7 + F ]  ...! +.OX#.T N N m K X.E E s.g.d.d.n.3XpX*XH.k.1._ _ &.%.%.*.*.l s 7 * p g u.K.W.W.W././.W.W.W.W.W.W.W.W.W.",
"W.W.W.W.).u.%.w P Y ..O.! @X-X%X2 X 1 S J ' m A a.l.b.z.b.iXpX*XiXM.k.<.6.6.;.*.*.*.*.%.g y 7 p i.K.)./.W././.K.W.W.W.W.W.W.W.W.",
"W.W.W.W.U.P.i.=.F D ..#.OX<XlXfXZ + @ H ] [ ( ( 0 q < U z.].iXH.pX`.J.J.F.x.5.%.*.%.*.*.) g l %.i.W.(.).W./.W.K.W.W.W.W.W.W.W.W.",
"!.C.W.L.K.~.A.=.0 A #.&X-XjXNXxXf.C 2 S P ( ( F r > + = :.e.k.k.k.k.k.k.y.6.%.g l l *.4.4.*.*.;.7.u.K.K.K././.W.W.W.W.W.W.W.W.W.",
"C.C.C.W.~.S.z 9 ` X.@X+XyXlXlXzXxXgXC + = * , A ' ] > X & * p < 3 y y y y * & * X s r.A.w.=.*.l f x u.(.).K./.K.~.~.~.~.~.~.W.W.",
"C.C.V.W.~.S.*.e ` ' &XqX<X>X2X5XBXnXf.B : 2 L } j.$.> X t t 3 * t t y y y y t * p l ;.;.%.) ) l & y c i.P.)./.K.~.~.~.~.~.~.W.W.",
"Q.K.I.U.~.D.7.-.< D 8XgXs.n R #XnXBXdXoXV V $X8X$.' @ & c q.u.7.7.7.7.7.7.7.7.7.7.4.g * * p g %.y 7 6 k u.).(./.~.~.~.~.~.~.W.W.",
"(.P.I.I.~.(.L.V.g U M.M.N + - Q cXVXmXkXXXXXeXeXX.G q %.Y.U.).(./././././.(.(.(.~.i.l 8 7 s s g k u o 6 7.(.(./.~.~.~.~.~.~.W.W.",
"{.E.U.U.(.(.T.L.B.,.Y m 1 - @ T 4XmXVXmXyX:XwX#.L P =.S.P.P.P.P./.W.W.W.~.~././.K.K.i.7.r.-.s & f u & y r.}./.K.~.~.~.~.~.~.W.W.",
"P.~.{.(.(.K.8.3.2.:.S ; S P w U oX5XmXZXvXjX,XW ; w w.(.}.).~.(./.W.W.W.~.~.~.~.K./.~.(.(.A.x y k s 6 y *.u.K./.~.~.~.~.~.~.W.W.",
"U.).^.^.Q.t.x p < P o. .E K D Z V XXkXvXlXjX&X@.m w u.).~.}.~.(.~.W.W.W.W.W.~.~.(.~././.~.K.u.-.x s 6 & 6 x u./.~.~.~.~.~.~.W.W.",
"/.~.Q.F.x.,.a @ m L h.$XO.} ' T R ~ >XyXjXrX@XX.m w 5.A.A.(.~.~.~.W.Q.Q./.W./././.K./.(.~.).).Z.f 7 6 6 o y 7./.~.~.~.~.~.~.W.W.",
"W.W.Q.y.I D T o...$XtXeXE M K @.=X<X;X;X;X&XOXO.' F q l u.(.).~.W.W.W.W.W.W.W.W./.~.K.K.K.(./.u.u o t 6 . y 7. XW.).~.K././.W.W.",
"^.W.W.;.2 M s.=XwXwXwX$XE M L ..0XqX$X+.+.+.| } ' S % y c 0.K.).W.W.W.W.W.W.W.W.~.K.P.K.K./.K.u.t o t y & u -.u.K././.W././.K.W.",
"|.(.(.7.: n =XjXjX:X! Q a.1.F H h.@.K m m A K  .J H % & y v u._.W.W.W.W.W.W.W.W.W.K.~./.W./.K.u.7 o 6 y 6 y u f A.~./.~./.~.K.W.",
"{.P.}.8.# C sXzXlX>XV b k.x.q % A H w q q d G G H 0 7 O o y 4.~.W.W.W.W.W.W.W.W.W.K.~./.W./.W.u.x y 6 6 t 6 & & u.W.).~./.~.K.W.",
"}.P.(.7.# ^ fXCXMX1Xn - k.x.p X + 7 c q.q.-.d @ 0 > 7 & . i t.|.W.!.!.!.W.W.W.W./.K.W.W.K././.K.u.*.y & y t o t w.K.(././.~.K.W.",
"}.U.(.2.4 h pXfXeX#XZ U l.v.%.t y x N.T.T.N.%.% < % & O . i S..XW.!.!.!.W.W.W.W./.K.W.W.K.~.(./.(.9.u . 7 t o u w.K.(.~.~./.W.W.",
"Y.Y.W.2.3 $ U T Y T a.n.m.m.z.p.w.w.Y.U.L.K.i.=.< + . .   i t.~.~.!.W.W.W.W.W.W.W.K.Q.).W.W.)./.(.r.y X t 7 X u r.W.(.W./.).W.W.",
"L.!._.r.f $ + + 1 I M.pXm.m.`.[._.W.Q.(.W.(.Q.y.g * 6 t t v A.~.~.W.W.W.W.W.W.W.W.K.).).W.W.~.K.P.r.u . u y X u u.~.(.K./.(.W.W.",
"/.L.W.K.B.%.@ < c.aXpXm.pXiXm.`.Q.W.W.W.W.W.W.W.u.u.r.8.0.u.K.K.W.W.W.W.W.W.W.W.W.K./.).W.K.W.K.P.0.6 . y 6 . y 0.K.(./././.K.K.",
"L.K././.W.;.p a '.aX`.n.iX6X6X`.Q.W.W.W.W.W.W.W./.W.W.W.W.W.W./.W.W.W.W.W.W.W.W.W.K.W./.K.W./.W.).0.i X y 6 X t 7.K./.U././.K./.",
"L.L./.).Q.2.p a v.].l.a.M.H.iX`.Q.W.W.W.W.W.W.W.).).).).)./.W.W.W.W.W.W.W.W.W.W./.K.W.W.K.W.).W.(.7.y o & & $ 6 u.K./.K././.K.~.",
"L.L./.).).2.< < e.c.<.1.l.M.H.[.Q.W.W.W.W.W.W.W.K.K.W.W.W.W.K.K.W.W.W.W.W.W.W.W./.K.W.W.K.W./.K.Z.c y & o & u k u.K./.P././.K.~.",
"K.K././.).w.p < e.c.<.1.>.g.M.[.W.W.W.W.W.W.W.W.W.W.W.W.W.W././.W.W.W.W.W.W.W.W.W.K.W.W.W.W.W.u.x y 6 & & y -.u.K././.K./.W.K.W.",
"/././.~.).w.y * w.i.,._ _ >.v.'.W.W.W.W.W.W.W.W.)./.W.W.W.W.W./.W.W.W.W.W.W.W.W.W.K.W.W.W./.K.r.& . X & y x u./.K././.K./.W.K.W.",
"/././.W.~.w.y * %.;.&._ _ 1.F.'.W.W.W.W.W.W.W.W.W.W.W.W.K.K.W.W.W.W.W.W.W.W.W.W.W.K.W.W.W.).K.r.6 X . y -.u.K./././.W.K./.W.K.W.",
"~.W././._.i.f p s %.%.&.&.=.x.D.W.W.W.W.W.W.W.W.W.W.W./././.W.W.W.W.W.W.W.W.W.W./.W.K.K.K.).W.u.x y & l K.(././././.K.K./.W.K./.",
"W.~.~.K.W.W.u.;.p $ l =.*.=.=.t.i./.W.K.).).K.).W.W.W.W.W.W.W.W.W.W.W.W.W.W.W.W.W.W.W.W.W.W.W.W.u.7.7.u.K././.K.W.W.W.W.W.W.W.W.",
"~.)./.~.).(.K.r.7 $ l *.%.*.*.4.K.).W.K.).).K.W.W.W.W.W.W.W.W.W.W.W.W.W.W.W.W.W.W.W.W.W.W.W.W.W././.K.K././.~.K.W.W.W.W.W.W.W.W.",
"W.W.W.W./.(.W.u.& & g *.*.*.*.;.K./.W.W.).).W.W.W.W.W.W.W.W.W.W.W.W.W.W.W.W.W.W.W.W.W.W.W.W.W.W.(./././././.W.W.W.W.W.W.W.W.Q.W.",
"W.W.W.K.W./.K.i.l u s l %.*.*.*.w.u.K.K.W.W.W.).W.W.W.W.W.W.W.W.W.W.W.W.W.W.W.W.W.W.W.W.W.W.W.W.K.K.K./.~.~.W./.W.W.W.W.W.W.Q.Q.",
"Q.Q.W.W.W.W.K.K.u.-.y y l *.*.l p x u.W.W.K.W.W.W.W.W.W.W.W.W.W.W.W.W.W.W.W.W.W.W.W.W.W.W.W.W.W././././.W.W.W.W.W.W.W.W.W.W.W.Q.",
"W.W.W.W.W.W././.(.w.7 $ s %.%.l X y 7.(.(./.W.K.W.W.W.W.W.W.W.W.W.W.W.W.W.W.W.W.W.W.W.W.W.W.W.W./././.~.W.W.W.W.W.W.W.W.W.W.W.W.",
"W.W.W.!.W.W.W./.~.u.7 $ s l %.l $ y 2./.).).).K.W.W.W.W.W.W.W.W.W.W.W.W.W.W.W.W.W.W.W.W.W.W.W.W.K.K.K.K.W.W.W.W.W.W.W.W.W.W.W.W.",
"W.W.W.W.W.W.W./.K.A.f & y s l l y y -.i.K.K./.K.W.W.W.W.W.W.W.W.W.W.W.W.W.W.W.W.W.W.W.W.W.W.W.W././.W.W.W.W.W.K.W.W.W.W.W.W.W.W.",
"W.W.W.W.W.W.W.W.K.K.i.-.& $ g -.x f y f A.(./.W.~./.W./.W.W.W.W././././.U././.K.W.W.W.W.W.W.W.W.W.W.W.W.W.W.W.W.W.W.W.W.W.W.W.W.",
"W.W.W.W.W.W.W.W.)./.W.u.x p s f *.x y y -.i.K.(.)./.W.W.W.W.).)././././././././.W.W.W.W.W.W.W.W.W.W.W.W.W.W.W.W.W.W.W.W.W.W.W.W.",
"W.W.W.W.W.W.W.W.W.)./.K.u.-.p & x x f y u x r.}./././.~.K.K.W.W.K.K././././.K.K.W.W.W.W.W.W.W.W.W.W.W.W.W.W.W.W.W.W.W.W.W.W.W.W.",
"W.W.W.W.W.W.W.W.K./.W.K.W.u.x p f *.*.l y t x r.7.u.W.(.).W.W././.K.u.7.7.u.K.K.W.W.W.W.W.W.W.W.W.W.W.W.W.W.W.W.W.W.W.W.W.W.W.W.",
"W.W.W.W.W.W.W.W.K.).W.K.(.W.w.;.k l *.x s 6 6 y y x i.).(.).).(.(.u.x t & x u.(.W.W.W.W.W.W.W.W.W.W.W.W.W.W.W.W.W.W.W.W.W.W.W.W.",
"W.W.W.W.W.W.W.W./.).W.K./.).K.u.f 7 7 s s u 6 X . y *.7.r.9.7.w.7.-.t X . t 7.(.W.W.W.W.W.W.W.W.W.W.W.W.W.W.W.W.W.W.W.W.W.W.W.W.",
"W.W.W.W.W.W.W.W.W.W.W.K.K.).W.i.s $ o 7 y u u & & 7 y s s u u y t t & & & s 7./.W.W.W.W.W.W.W.W.W.W.W.W.W.W.W.W.W.W.W.W.W.W.W.W.",
"W.W.W.W.W.W.W.W.W.K.W./.W.(.W.w.f 7 y u & & 7 y s 7 o X . X o X X & & & t f u.(.W.W.W.W.W.W.W.W.W.W.W.W.W.W.W.W.W.W.W.W.W.W.W.W.",
"W.W.W.W.W.W.W.W.W.W.W.W.W.W.W.~.u.u.u.-.7 . o $ y t t t 7 6 7 y u & o t -.u.K.K.W.W.W.W.W.W.W.W.W.W.W.W.W.W.W.W.W.W.W.W.W.W.W.W.",
"W.W.W.W.W.W.W.W.W.W.W.W.W.W.W.W./.~.K.u.x u y 7 y 7 & 6 6 & 6 7 & & u x u.K././.W.W.W.W.W.W.W.W.W.W.W.W.W.W.W.W.W.W.W.W.W.W.W.W.",
"W.W.W.W.W.W.W.W.W.W.W.W.W.W.W.W.(././.K.u.7.7.-.& & o o $ o o $ o t -.u.K./././.W.W.W.W.W.W.W.W.W.W.W.W.W.W.W.W.W.W.W.W.W.W.W.W.",
"W.W.W.W.W.W.W.W.W.W.W.W.W.W.W.W.W.K.K././././.K.f u t y y y y y t x u.K././.K./.W.W.W.W.W.W.W.W.W.W.W.W.W.W.W.W.W.W.W.W.W.W.W.W.",
"W.W.W.W.W.W.W.W.W.W.W.W.W.W.W.W.W.K.W.W.W.W.).W.i.w.7.7.w.w.7.7.7.u.K./././././.W.W.W.W.W.W.W.W.W.W.W.W.W.W.W.W.W.W.W.W.W.W.W.W.",
"W.W.W.W.W.W.W.W.W.W.W.W.W.W.W.W.W.W.W.W.K.K.W.K._.).~./.)./././././././././././.W.W.W.W.W.W.W.W.W.W.W.W.W.W.W.W.W.W.W.W.W.W.W.W.",
"W.W.W.W.W.W.W.W.W.W.W.W.W.W.W.W.W.K.W.W.V.!.W.W.).W.W././.W.~./././.K.K.K./././.W.W.W.W.W.W.W.W.W.W.W.W.W.W.W.W.W.W.W.W.W.W.W.W.",
"W.W.W.W.W.W.W.W.W.W.W.W.W.W.W.W.W.K.W.Q.!.!./.!.W.K.W./.W.W.W./.K.K.K././././.K.W.W.W.W.W.W.W.W.W.W.W.W.W.W.W.W.W.W.W.W.W.W.W.W."
};
