/* XPM */
static char * item_xpm[] = {
"32 32 12 1",
" 	c None",
".	c #160207",
"+	c #350912",
"@	c #9B1A35",
"#	c #E54242",
"$	c #FF8056",
"%	c #160306",
"&	c #681124",
"*	c #B06250",
"=	c #813F3F",
"-	c #462329",
";	c #301217",
"                                ",
"                                ",
"  ...      ....                 ",
"  .++..   .@#$.%%%%             ",
"  .+++&.. .@##.*==-%%           ",
"   .+&&@#.@#..==-----%%         ",
"   .&&&@.+&.=====-----;%        ",
"    .@@$.+&&..=====-----        ",
"   .&@##$.+.@.%%%%%%%=--%       ",
"    .#..$#.#&.       %%-;%      ",
"     .++#$#@.          %-%      ",
"   ..@&&.##@.           ;;%     ",
"  .@@#.&#@@&&.          %;%     ",
"  .##.=.&..&++.         %;;%    ",
"  .$#.=..  .++.          %;%    ",
"  ...===    ...          %;%    ",
"   %*===                 %;%    ",
"   %=-==                 %;%    ",
"   %=--=                %;%     ",
"   %---=                %%      ",
"    %---                        ",
"    %---                        ",
"     %--%                       ",
"     %;-%                       ",
"      %--%                      ",
"       %--%                     ",
"        ;-;%%    %%             ",
"        %%;;;%%%%;%             ",
"          %%;;;;;%              ",
"            %%%%%               ",
"                                ",
"                                "};
