/* XPM */
static char * player_xpm[] = {
"32 32 6 1",
" 	c #624747",
".	c #3A0911",
"+	c #811426",
"@	c #A11B31",
"#	c #000000",
"$	c #FFFFFF",
"                                ",
"                                ",
"                                ",
"                                ",
"          .+@@@@@.              ",
"         .+@@@...@.             ",
"        .+@@@.###.@.            ",
"        .+@@.#####.@.           ",
"       .++@@.#####.@.           ",
"       .+++@.#$##$.@.           ",
"       .+.+@.#$##$.@.           ",
"       .+.+@.#####.+.           ",
"          .+++.##.+.            ",
"           ..++..+.             ",
"          .+++@@@@+.            ",
"         .+@@@@@@@@+.           ",
"         .+@@@@@@@@+.           ",
"         .@@@@@@@@@@.           ",
"        .+@@@@@@@@@@.           ",
"        .+@@@@@@@@@@+.          ",
"        .+@@@@@++@@++.          ",
"       .+++@+@++++@++.          ",
"       .++++@++..++++.          ",
"       .+.++++.#.++.+.          ",
"        ..+.++.##.++.           ",
"         .. ... #...            ",
"            ##   #              ",
"             #   #              ",
"                                ",
"                                ",
"                                ",
"                                "};
