/* XPM */
static char *_e6afa3a647d41a4d8389a999987456fwAL55oNGglPysYG8[] = {
/* columns rows colors chars-per-pixel */
"64 64 215 2 ",
"   c #020102",
".  c #0C0100",
"X  c #0A070C",
"o  c #140100",
"O  c #1C0203",
"+  c #190B06",
"@  c #160909",
"#  c #1F0C08",
"$  c #1F100B",
"%  c #170E13",
"&  c #0F1511",
"*  c #111417",
"=  c #230103",
"-  c #2B0206",
";  c #2C040A",
":  c #230D0B",
">  c #2C0B0D",
",  c #340106",
"<  c #33030A",
"1  c #3B040C",
"2  c #35090D",
"3  c #3B090E",
"4  c #20110C",
"5  c #330D12",
"6  c #3D0B13",
"7  c #2C1A16",
"8  c #2C1F19",
"9  c #3E1517",
"0  c #3C1118",
"q  c #3D1A1B",
"w  c #361317",
"e  c #2E2D2E",
"r  c #352923",
"t  c #3E2726",
"y  c #2C312B",
"u  c #3D352F",
"i  c #35312E",
"p  c #312C33",
"a  c #2B3335",
"s  c #333432",
"d  c #3A3738",
"f  c #47060E",
"g  c #53040F",
"h  c #58020F",
"j  c #4C0713",
"k  c #430B13",
"l  c #4A0B14",
"z  c #4D0D19",
"x  c #470513",
"c  c #530512",
"v  c #5A0614",
"b  c #530A15",
"n  c #5A0916",
"m  c #540D1A",
"M  c #5C0E1B",
"N  c #431015",
"B  c #44151B",
"V  c #4C141C",
"C  c #44191D",
"Z  c #4B1A1E",
"A  c #4E1015",
"S  c #53141D",
"D  c #5B121C",
"F  c #511A1F",
"G  c #630614",
"H  c #620A16",
"J  c #690C17",
"K  c #630519",
"L  c #610D1C",
"P  c #6B0D1C",
"I  c #730E1E",
"U  c #7B0F1F",
"Y  c #64121D",
"T  c #6B101D",
"R  c #72111E",
"E  c #471B22",
"W  c #4B1C23",
"Q  c #551520",
"!  c #5C1522",
"~  c #521B23",
"^  c #591A24",
"/  c #630F21",
"(  c #6C0D21",
")  c #730E21",
"_  c #7A0D20",
"`  c #641523",
"'  c #6B1323",
"]  c #631926",
"[  c #6F1729",
"{  c #641B2A",
"}  c #6B1B2B",
"|  c #6D1926",
" . c #731324",
".. c #7C1424",
"X. c #711924",
"o. c #791925",
"O. c #741629",
"+. c #7C172A",
"@. c #751B2B",
"#. c #7C1A2C",
"$. c #7C1E32",
"%. c #452224",
"&. c #4D2425",
"*. c #4C2628",
"=. c #442C29",
"-. c #4E2C2C",
";. c #472827",
":. c #52262A",
">. c #5B252C",
",. c #56292C",
"<. c #5D2B2F",
"1. c #5E2327",
"2. c #5F2730",
"3. c #5C2B30",
"4. c #512E32",
"5. c #433432",
"6. c #4C3433",
"7. c #4D3B36",
"8. c #4B3E39",
"9. c #543334",
"0. c #5B3436",
"q. c #563638",
"w. c #5C353A",
"e. c #553B3B",
"r. c #5C3B3B",
"t. c #583937",
"y. c #63222B",
"u. c #652631",
"i. c #782432",
"p. c #61353A",
"a. c #623A3D",
"s. c #643837",
"d. c #743C3F",
"f. c #7A393F",
"g. c #38413C",
"h. c #4F423C",
"j. c #54413D",
"k. c #5B423E",
"l. c #62403F",
"z. c #443C42",
"x. c #5A3B40",
"c. c #653F43",
"v. c #6D3E44",
"b. c #773841",
"n. c #3E4648",
"m. c #424647",
"M. c #5D4543",
"N. c #574B44",
"B. c #5D4A46",
"V. c #5C4648",
"C. c #564C4A",
"Z. c #5D4B49",
"A. c #574241",
"S. c #5E514B",
"D. c #614746",
"F. c #694446",
"G. c #614846",
"H. c #654649",
"J. c #6A4649",
"K. c #644A49",
"L. c #694A4B",
"P. c #684947",
"I. c #714349",
"U. c #714346",
"Y. c #60534D",
"T. c #940E27",
"R. c #841425",
"E. c #8B1326",
"W. c #821927",
"Q. c #83162A",
"!. c #8B162A",
"~. c #841A2C",
"^. c #8B1A2D",
"/. c #94152A",
"(. c #9B152C",
"). c #931A2D",
"_. c #9C1C2E",
"`. c #961227",
"'. c #831C30",
"]. c #8B1D32",
"[. c #881630",
"{. c #9D1732",
"}. c #941D32",
"|. c #9C1D32",
" X c #941F39",
".X c #981B35",
"XX c #A1172E",
"oX c #AB172F",
"OX c #A31B2E",
"+X c #A8182F",
"@X c #A51731",
"#X c #A91632",
"$X c #A31B32",
"%X c #A81B33",
"&X c #A51C38",
"*X c #8C222E",
"=X c #9A202F",
"-X c #8D2639",
";X c #842E3E",
":X c #8D2B3C",
">X c #862534",
",X c #962234",
"<X c #9B2132",
"1X c #932439",
"2X c #9B2139",
"3X c #883040",
"4X c #929996",
"5X c #959596",
"6X c #A89C9C",
"7X c #A7A29E",
"8X c #BEC8C3",
"9X c #C4CBC9",
"0X c #CBCCCE",
"qX c #D5CDCA",
"wX c #D5D0CC",
/* pixels */
"D.D.D.D.D.D.D.D.D.D.D.D.D.D.D.D.G.D.D.D.D.D.G.B.Z.C.C.C.Z.B.G.H.J.F.D.D.D.D.F.F.D.B.N.N.B.D.F.F.D.D.D.D.D.D.D.D.D.D.D.D.D.D.D.D.",
"D.D.D.D.D.D.D.D.D.D.D.D.D.D.D.D.M.M.D.D.D.D.G.K.B.B.Z.B.B.K.H.H.D.D.D.D.D.D.D.D.D.B.B.B.B.D.F.F.D.D.D.D.D.D.D.D.D.D.D.D.D.D.D.D.",
"D.D.D.D.D.D.D.D.D.D.D.D.D.D.D.G.B.B.G.G.D.D.D.D.D.D.H.D.H.D.F.D.M.B.D.D.D.D.G.G.B.B.G.D.D.D.D.D.D.D.D.D.D.D.D.D.D.D.D.D.D.D.D.D.",
"D.D.D.D.D.D.D.D.D.D.D.D.D.D.D.G.G.B.B.G.D.D.D.D.D.F.F.F.D.D.D.D.B.B.G.D.D.D.B.B.B.G.D.D.D.D.B.B.G.D.D.D.D.D.D.D.D.D.D.D.D.D.D.D.",
"D.D.D.D.D.D.D.D.D.D.D.D.D.D.D.D.D.D.G.B.B.B.G.G.G.D.D.D.G.G.B.B.B.B.G.G.D.D.B.B.B.D.D.F.F.D.B.N.B.D.D.D.D.D.D.D.D.D.D.D.D.D.D.D.",
"D.D.D.D.D.D.D.D.D.D.D.D.D.D.D.D.D.D.G.G.G.G.G.G.G.D.D.D.D.G.B.B.G.G.D.D.G.B.B.B.G.D.D.D.D.G.B.B.B.D.D.D.D.D.D.D.D.D.D.D.D.D.D.D.",
"D.D.D.D.D.D.D.D.D.D.D.D.D.D.D.D.F.F.D.G.B.B.B.G.D.l.l.l.l.F.D.F.U.v.D.M.B.Z.K.D.D.D.D.D.G.B.B.B.G.D.D.D.D.D.D.D.D.D.D.D.D.D.D.D.",
"D.D.D.D.D.D.D.D.D.D.D.D.D.D.D.D.F.D.D.D.k.r.s.s.d.f.f.f.f.d.d.b.b.b.a.r.M.Z.K.D.D.D.D.B.B.B.D.D.D.D.D.D.D.D.D.D.D.D.D.D.D.D.D.D.",
"D.D.D.D.D.D.D.D.G.D.D.D.D.D.D.D.D.D.G.r.&.V y.i.>X-X-X-X-X:X3X;X;Xi.^ &.q.K.L.D.D.D.B.B.B.B.D.D.D.D.D.D.D.D.D.D.D.D.D.D.D.D.D.D.",
"D.D.D.D.D.D.D.D.D.M.D.D.K.K.G.K.Z.k.t.,.S D o.].}.2X2X}.[.~.$.@.$.} ! ~ ,.r.D.D.D.G.B.B.B.D.D.D.D.D.D.D.D.D.D.D.D.D.D.D.D.D.D.D.",
"D.D.D.D.D.D.D.D.M.M.D.D.K.K.G.B.N.7.*.F M I !.(.@X&X|.^.) M m m b ` { { ^ ~ w.L.D.G.G.D.D.D.D.K.D.D.D.D.D.D.D.D.D.D.D.D.D.D.D.D.",
"D.D.D.D.D.D.D.D.D.D.D.D.D.G.M.A.j.=.Z D  .!.$X@X&X|.].' j 1 ; < , l { } ! Q ,.c.D.G.K.K.D.D.D.K.D.D.D.D.D.D.D.D.D.D.D.D.D.D.D.D.",
"D.D.D.D.D.D.D.D.D.G.G.D.G.K.M.r.;.C S | ^.|.&X{.2X'.` k = o . . o = 3 Q } { ^ W a.D.D.K.K.D.D.G.D.D.D.D.D.D.D.D.D.D.D.D.D.D.D.D.",
"D.D.D.D.D.D.D.D.D.G.G.D.K.K.D.r.B l Y ~.}.&X$X}.~.` 3 O .         . = k ` } ` S 3.w.D.K.K.D.D.D.D.D.D.D.D.D.D.D.D.D.D.D.D.D.D.D.",
"D.D.D.D.D.D.D.D.M.G.G.D.G.K.M.0.l n I ^.|.$X|.^.Y f = .             o - x / [ @.! >.t.B.Z.B.D.D.D.D.D.D.D.D.D.D.D.D.D.D.D.D.D.D.",
"D.D.D.D.D.D.D.D.D.G.D.D.D.D.r.3.D H I !.{.$X|.~.b , o .               o , M #.$.c ~ q.M.Z.B.D.D.D.D.D.D.D.D.D.D.D.D.D.D.D.D.D.D.",
"G.G.G.G.D.D.G.G.G.M.G.D.J.r.W V D X...Q.}.|.2X~.b < o . .             o < D #.i.m B e.K.K.K.M.G.D.D.D.D.D.D.D.D.D.D.D.D.D.D.D.D.",
"B.B.G.G.D.D.G.G.B.M.K.D.F.w.C l Y o...W.)..X2X'.m ; o @ d d *   X % y u 9 M #.#.l B q.G.J.J.M.B.G.D.D.D.D.D.D.D.D.D.D.D.D.D.D.D.",
"B.B.G.D.D.D.G.G.B.M.K.D.F.0.B l R R.....!.}.}.$.l ; . s 5X5Xp     s 4X7Xa.c +.~.b V w.H.J.H.B.N.G.D.D.D.D.D.D.D.D.D.D.D.D.D.D.D.",
"B.B.D.D.D.D.D.G.B.M.K.G.F.w.C l  .R.I I R.!.}.#.m ;   d 9X0Xz.    m.8XwXI.c ~.+.n V w.H.J.K.M.B.B.D.D.D.D.D.D.D.D.D.D.D.D.D.D.D.",
"B.B.D.D.D.D.D.G.B.M.K.G.F.w.C l ) U G H  .^. XQ.m ;   g.9X0Xz.    n.8XqXI.c '.+.b V w.H.J.K.V.N.B.D.D.D.D.D.D.D.D.D.D.D.D.D.D.D.",
"B.B.D.D.D.D.D.D.G.M.K.D.D.0.B k ' P g c ' '.1X[.c , o s 4X4Xe     a 4X6Xp.c #.#.j V w.H.J.K.V.B.B.D.D.D.D.D.D.D.D.D.D.D.D.D.D.D.",
"B.B.D.D.D.D.D.D.G.M.K.D.D.t.C N ] ` l l ` #. X[.K 1 o @ i s &   X * e 5.B m [ ` z B w.H.J.K.B.B.G.D.D.D.D.D.D.D.D.D.D.D.D.D.D.D.",
"B.B.D.D.D.D.D.D.G.M.G.G.K.r.%.C >.>.C B ^ @.].Q.( c , = o           . O 1 S ` Q E %.x.K.L.K.M.B.G.D.D.D.D.D.D.D.D.D.D.D.D.D.D.D.",
"B.B.D.D.D.D.D.D.M.G.B.G.D.M.a.a.a.a.t.-.Z m ' '. .| ` z 2 O     . o O 0 W S A N 4.e.V.V.D.K.G.D.D.D.D.D.D.D.D.D.D.D.D.D.D.D.D.D.",
"B.G.D.D.D.D.D.D.M.M.B.G.G.D.D.F.F.J.K.r.*.V D ' '  .O.' m 3 O o = ; 6 V S S ~ :.r.B.K.K.G.K.G.D.D.D.D.D.D.D.D.D.D.D.D.D.D.D.D.D.",
"B.G.D.D.D.D.D.D.D.M.B.G.K.K.H.J.J.J.G.D.r.<.S c v P ..+.O.M 3 - < x D ! M S >.a.M.Z.Z.B.D.D.D.D.D.D.D.D.D.D.D.D.D.D.D.D.D.D.D.D.",
"B.G.D.D.D.D.D.D.G.G.B.B.M.D.D.D.F.F.M.M.a.<.D c h G _ Q.^.+.Y b v / O.X.P M 1.a.M.Z.B.M.M.D.D.D.D.D.D.D.D.D.D.D.D.D.D.D.D.D.D.D.",
"B.G.D.D.D.D.D.D.G.G.B.B.M.M.D.D.c.J.L.r.:.S L T P I ..!.}.}.^.W.#.'.].!.U J D ~ a.M.B.B.G.G.G.G.D.D.D.D.D.D.D.D.D.D.D.D.D.D.D.D.",
"B.G.D.D.D.D.D.D.D.B.B.B.B.G.G.D.J.F.r.,.Z M  .Q.Q.Q.Q.^.}.|.$X|.,X,X|.{./...H l 3.t.D.K.K.G.B.B.G.D.D.D.D.D.D.D.D.D.D.D.D.D.D.D.",
"B.G.D.D.D.D.D.D.D.B.B.B.B.G.G.G.L.e.t q Q @.).{.|.,X*X*X}.{.#X%X|.|.%X@X%X). .D V :.x.H.H.M.B.N.G.D.D.D.D.D.D.D.D.D.D.D.D.D.D.D.",
"B.G.D.D.D.D.D.D.D.G.B.B.B.G.D.M.K.q.q N D Q.{.#X$X|.,X,X|.$X@X%X|.|.OX+XOX_.R.' f E w.H.K.B.B.B.B.D.D.D.D.D.D.D.D.D.D.D.D.D.D.D.",
"G.G.G.D.D.D.D.D.G.D.D.G.G.D.G.K.D.w.C k ' ~.(.%X#X+XOX$X|.|.|.|.$X_._.<X|.|.Q.( l B w.L.D.K.B.N.B.D.D.D.D.D.D.D.D.D.D.D.D.D.D.D.",
"G.G.G.G.D.D.D.D.D.D.D.D.G.G.G.G.L.w.V j  .^.{.%XoXoX+XOX$X|.|.|.$X_.=X<X|.|.^. .z B w.L.F.K.B.N.B.D.D.D.D.D.D.D.D.D.D.D.D.D.D.D.",
"G.G.G.G.D.D.D.D.D.D.D.D.G.G.D.D.L.0.V b O.}.|.%X+X+XOXOX$X|.|.|.$X_._.<X_.<X}.+.m B w.J.F.K.B.N.B.D.D.D.D.D.D.D.D.D.D.D.D.D.D.D.",
"G.G.G.G.D.D.D.D.D.D.D.D.G.K.D.M.r.,.S Y W.<X$XOXOXOXOXOX$X$X$X$X$XXX_.<XOX$X|.~.b V p.J.F.G.B.B.G.D.D.D.D.D.D.D.D.D.D.D.D.D.D.D.",
"G.G.D.D.D.D.D.D.D.G.D.D.G.K.D.r.*.Z S X.].<X$XXXOXOXOX_.$X$X$X%X%XOX$XOXOX$X<X~.v S p.F.F.G.M.B.G.D.D.D.D.D.D.D.D.D.D.D.D.D.D.D.",
"G.G.D.D.D.D.D.D.D.G.G.D.G.K.D.r.9 k D #.,X|.%XXXOXOX_._.|.$X%X%X$X%X$XOXOX$X|.~.L S 3.p.F.G.M.G.G.D.D.D.D.D.D.D.D.D.D.D.D.D.D.D.",
"D.D.D.D.G.G.D.D.D.K.G.D.D.L.D.r.N l Y ~.}.{.$XOXOX_._._.|.$X%X%X%XXX$X$XOXXX_.^.X.D ~ :.a.P.M.G.G.D.D.D.D.D.D.D.D.D.D.D.D.D.D.D.",
"D.D.D.D.G.G.D.D.D.K.G.D.D.L.D.w.V b T ~.).XX#XOXOX_.=X|.|.$X&X&X{._.$X$XOXXX|.^.i.D l B 0.G.G.G.G.D.D.D.D.D.D.D.D.D.D.D.D.D.D.D.",
"D.D.D.D.G.G.G.G.M.K.G.M.K.L.F.0.S g P ^._.XX#X$X_._.<X<X|.(.`.T././._.XX$X_./.R.#.` l B 0.G.G.G.G.D.D.D.D.D.D.D.D.D.D.D.D.D.D.D.",
"D.D.D.D.G.G.G.G.D.K.G.D.L.D.t.,.D H I ^./.(.%X$X(._.}.}.}.)./.E.R.E./.(.$X_./.R.+.` l B 0.G.D.G.G.D.D.D.D.D.D.D.D.D.D.D.D.D.D.D.",
"D.D.D.D.G.G.G.G.D.G.D.D.D.r.*.Z ` T ..Q.E.`.XXXX`./.).}.^.Q.Q...+...E./._.).!.....' l Z t.G.D.G.D.D.D.D.D.D.D.D.D.D.D.D.D.D.D.D.",
"D.D.D.D.G.G.G.G.D.D.D.H.F.9.C k ` O.+.R.R.E././././.).^.~.+. .' '  ...!.).).Q...+.` l B t.K.D.G.D.D.D.D.D.D.D.D.D.D.D.D.D.D.D.D.",
"D.D.D.D.G.G.B.B.G.G.D.L.L.9.C k ` @.#.....R.!.E.).).!.Q.@.' D l f n I R.R.R.W.#.#.` x B e.K.G.G.D.D.D.D.D.D.D.D.D.D.D.D.D.D.D.D.",
"D.D.D.D.G.G.B.B.M.D.D.H.J.0.C k ` @.X. .o.W.R.R.).^.Q.+.' S k < 1 b ' ......R R @.` x B e.K.H.G.D.D.D.D.D.D.D.D.D.D.D.D.D.D.D.D.",
"D.D.D.D.G.G.B.B.M.D.D.D.F.0.E k ` ' H H X.o...R.!.!.Q. .M k - = 1 z ' #...R J G  .` z E e.K.D.H.D.D.D.D.D.D.D.D.D.D.D.D.D.D.D.D.",
"D.D.D.D.G.G.G.G.G.K.G.D.J.r.*.B Q D g g Y X.R ....Q.+.' l , O o - 3 D | @.' H v ` ` V W e.B.D.K.D.D.D.D.D.D.D.D.D.D.D.D.D.D.D.D.",
"D.D.D.D.D.D.D.D.G.D.M.D.K.D.t.9.C N 1 l ] ` K G  .@.@.! k ; O o o = 1 S ] @.} L j Q 3.a.H.G.D.D.D.D.D.D.D.D.D.D.D.D.D.D.D.D.D.D.",
"D.D.D.D.D.D.D.D.D.D.M.D.K.G.M.r.%.q 3 k S ! M L / ` { ~ 0 5 > + o o > N S ! ` ! Q >.p.F.D.D.D.G.D.D.D.D.D.D.D.D.D.D.D.D.D.D.D.D.",
"D.D.D.D.D.D.D.D.G.D.D.D.G.K.K.G.t.-.9 2 6 ~ y.u.Q z k 6 5 q ;.t o o = 2 k l m S 2.p.F.K.G.D.D.K.D.D.D.D.D.D.D.D.D.D.D.D.D.D.D.D.",
"D.D.D.D.D.D.D.D.G.G.G.D.D.D.D.G.L.r.*.C 9 ,.a.p.B - - > w -.M.A.8 4 = 2 B V V ~ a.F.K.K.G.M.D.G.D.D.D.D.D.D.D.D.D.D.D.D.D.D.D.D.",
"D.D.D.D.D.D.D.D.D.G.K.G.D.D.D.D.G.l.r.t.q.M.M.6.: o o : =.M.K.A.h.r : > :.p.p.a.D.D.G.B.B.B.D.D.D.D.D.D.D.D.D.D.D.D.D.D.D.D.D.D.",
"D.D.D.D.D.D.D.D.M.D.G.K.K.G.G.G.D.D.D.D.B.K.B.8.8 + . : 6.K.K.M.Y.u # : 9.J.L.L.K.B.B.B.B.K.G.D.D.D.D.D.D.D.D.D.D.D.D.D.D.D.D.D.",
"D.D.D.D.D.D.D.D.D.D.D.G.G.K.G.G.G.L.G.M.B.Z.N.N.8.r + $ 6.K.K.K.S.5.: : 6.K.K.K.B.B.B.B.B.G.G.K.D.D.D.D.D.D.D.D.D.D.D.D.D.D.D.D.",
"D.D.D.D.D.D.D.D.K.G.D.M.D.D.D.D.k.L.G.M.K.B.N.Z.S.8.7 7 e.K.M.K.B.7.7 7 e.L.M.M.M.B.Z.B.B.D.D.L.D.D.D.D.D.D.D.D.D.D.D.D.D.D.D.D.",
"D.D.D.D.D.D.D.D.D.D.D.D.D.D.D.D.G.G.G.G.D.G.D.G.G.k.e.e.A.B.B.V.B.j.7.e.M.B.B.M.B.B.B.B.G.D.D.D.D.D.D.D.D.D.D.D.D.D.D.D.D.D.D.D.",
"D.D.D.D.D.D.D.D.D.D.D.D.D.D.D.D.G.G.G.G.D.D.D.D.H.D.D.D.K.K.K.B.K.M.M.M.B.K.Z.B.B.B.B.G.D.D.D.D.D.D.D.D.D.D.D.D.D.D.D.D.D.D.D.D.",
"D.D.D.D.D.D.D.D.D.D.D.D.D.D.D.G.B.B.G.D.D.F.F.F.F.J.L.L.K.K.B.B.G.G.K.K.B.B.B.B.B.G.D.D.D.D.D.D.D.D.D.D.D.D.D.D.D.D.D.D.D.D.D.D.",
"D.D.D.D.D.D.D.D.D.D.D.D.D.D.D.G.B.B.G.D.D.F.F.F.F.F.J.H.G.M.M.B.M.D.K.K.G.M.M.B.G.D.D.D.D.D.D.D.D.D.D.D.D.D.D.D.D.D.D.D.D.D.D.D.",
"D.D.D.D.D.D.D.D.D.D.D.D.D.D.D.D.G.G.G.D.D.D.D.D.F.F.D.D.H.K.K.K.G.G.D.G.G.B.B.G.D.D.D.D.D.D.D.D.D.D.D.D.D.D.D.D.D.D.D.D.D.D.D.D.",
"D.D.D.D.D.D.D.D.D.D.D.D.D.D.D.D.G.G.G.G.D.D.D.D.K.D.D.D.G.K.K.K.K.D.M.M.B.K.K.G.D.D.D.D.D.D.G.G.D.D.D.D.D.D.D.D.D.D.D.D.D.D.D.D.",
"D.D.D.D.D.D.D.D.D.D.D.D.D.D.D.D.G.G.G.G.B.B.B.B.B.B.M.M.D.G.D.D.D.D.M.M.B.B.B.G.D.D.D.D.D.G.B.B.G.D.D.D.D.D.D.D.D.D.D.D.D.D.D.D.",
"D.D.D.D.D.D.D.D.D.D.D.D.D.D.D.D.D.G.G.B.B.B.B.N.B.B.Z.K.K.D.D.H.D.G.K.K.B.B.B.G.D.D.D.D.D.B.B.B.G.D.D.D.D.D.D.D.D.D.D.D.D.D.D.D."
};
