/* XPM */
static char * wall_xpm[] = {
"32 32 365 2",
"  	c #79726C",
". 	c #988E85",
"+ 	c #998F86",
"@ 	c #837A71",
"# 	c #726F68",
"$ 	c #373735",
"% 	c #373736",
"& 	c #373835",
"* 	c #76716B",
"= 	c #C9B9AF",
"- 	c #BEB0A5",
"; 	c #A99D90",
"> 	c #A99C93",
", 	c #BEAFA4",
"' 	c #BEAFA5",
") 	c #9A9086",
"! 	c #7D746B",
"~ 	c #7D766E",
"{ 	c #B2A59C",
"] 	c #A79A91",
"^ 	c #AB9E96",
"/ 	c #B1A49B",
"( 	c #B3A69D",
"_ 	c #968980",
": 	c #7A7269",
"< 	c #383735",
"[ 	c #978D84",
"} 	c #978E85",
"| 	c #373734",
"1 	c #383836",
"2 	c #CDC0B7",
"3 	c #BDAFA6",
"4 	c #988E84",
"5 	c #3B3834",
"6 	c #B3A59C",
"7 	c #C4B6AD",
"8 	c #7C736B",
"9 	c #363634",
"0 	c #D4C6BB",
"a 	c #C1B3A8",
"b 	c #BDAFA4",
"c 	c #928980",
"d 	c #373836",
"e 	c #817973",
"f 	c #7F746C",
"g 	c #948A81",
"h 	c #7D736A",
"i 	c #988D83",
"j 	c #BDB0A5",
"k 	c #363734",
"l 	c #BDAFA5",
"m 	c #BCAEA3",
"n 	c #B2A59D",
"o 	c #B0A39A",
"p 	c #D3C5BC",
"q 	c #7C736C",
"r 	c #BDB0A4",
"s 	c #42413E",
"t 	c #D9C7BD",
"u 	c #DAC9BF",
"v 	c #C6BAAE",
"w 	c #BFB1A6",
"x 	c #BEB0A7",
"y 	c #B2A39D",
"z 	c #B0A69C",
"A 	c #A69990",
"B 	c #827870",
"C 	c #BCAFA4",
"D 	c #CDBFB4",
"E 	c #A6998F",
"F 	c #BEB0A4",
"G 	c #BFAEA4",
"H 	c #35322D",
"I 	c #978D83",
"J 	c #B4A79E",
"K 	c #B2A69C",
"L 	c #393733",
"M 	c #AFA299",
"N 	c #AFA59B",
"O 	c #B2A69D",
"P 	c #90867D",
"Q 	c #7E746E",
"R 	c #B1A79E",
"S 	c #383838",
"T 	c #D7C6BC",
"U 	c #3F3B35",
"V 	c #B0A49B",
"W 	c #B9AAA1",
"X 	c #938980",
"Y 	c #ADA399",
"Z 	c #7A716A",
"` 	c #9D938A",
" .	c #B5A79E",
"..	c #35312E",
"+.	c #B6A9A0",
"@.	c #433E38",
"#.	c #514E4A",
"$.	c #7D736C",
"%.	c #8B837D",
"&.	c #7E7975",
"*.	c #383835",
"=.	c #363835",
"-.	c #363531",
";.	c #343430",
">.	c #363735",
",.	c #353835",
"'.	c #45413C",
").	c #3B3937",
"!.	c #373837",
"~.	c #393833",
"{.	c #AEA49B",
"].	c #393631",
"^.	c #BCAFA3",
"/.	c #988B82",
"(.	c #BBADA2",
"_.	c #998E84",
":.	c #BDAFA3",
"<.	c #BBAFA3",
"[.	c #BCAFA6",
"}.	c #D1C5B9",
"|.	c #B1A69D",
"1.	c #B3A69B",
"2.	c #353732",
"3.	c #D8CABF",
"4.	c #B9ACA3",
"5.	c #C1B0A6",
"6.	c #363834",
"7.	c #D8C7BD",
"8.	c #9B9288",
"9.	c #B3A69C",
"0.	c #363732",
"a.	c #373633",
"b.	c #756F69",
"c.	c #BEADA3",
"d.	c #B4A69D",
"e.	c #D6C5BB",
"f.	c #373732",
"g.	c #BEAEA6",
"h.	c #7B7771",
"i.	c #67635F",
"j.	c #373634",
"k.	c #3A3B38",
"l.	c #9D9188",
"m.	c #C5B7AA",
"n.	c #988D84",
"o.	c #89817A",
"p.	c #46413D",
"q.	c #373631",
"r.	c #383733",
"s.	c #B3A69E",
"t.	c #33302C",
"u.	c #CEBDB3",
"v.	c #7F7672",
"w.	c #7B7269",
"x.	c #383732",
"y.	c #B2A49C",
"z.	c #C4B3A9",
"A.	c #7B726B",
"B.	c #BDB2A6",
"C.	c #7F766C",
"D.	c #A89B92",
"E.	c #BAACA3",
"F.	c #B0A79D",
"G.	c #A79D94",
"H.	c #343635",
"I.	c #BCB0A7",
"J.	c #7F7A73",
"K.	c #B1A59C",
"L.	c #3C3832",
"M.	c #A89E95",
"N.	c #B1A79D",
"O.	c #B2A79E",
"P.	c #978C83",
"Q.	c #958C84",
"R.	c #7C766F",
"S.	c #7D7770",
"T.	c #373430",
"U.	c #403C38",
"V.	c #C7B6AC",
"W.	c #BCAEA6",
"X.	c #363635",
"Y.	c #524E4A",
"Z.	c #7C7771",
"`.	c #34352F",
" +	c #3A3834",
".+	c #353736",
"++	c #998C83",
"@+	c #6B6360",
"#+	c #857D78",
"$+	c #786F68",
"%+	c #7B726A",
"&+	c #7B746E",
"*+	c #BEAFA2",
"=+	c #9F948A",
"-+	c #9B8D84",
";+	c #A1938A",
">+	c #998E85",
",+	c #4B4743",
"'+	c #7A7069",
")+	c #5A5752",
"!+	c #BFB2A8",
"~+	c #BCABA3",
"{+	c #A4978E",
"]+	c #AC9F97",
"^+	c #C8BAAF",
"/+	c #958B81",
"(+	c #B1A39A",
"_+	c #393836",
":+	c #D7C4BD",
"<+	c #B1A49C",
"[+	c #7F746B",
"}+	c #9E948A",
"|+	c #958C83",
"1+	c #373636",
"2+	c #B3A59D",
"3+	c #B2A59B",
"4+	c #353533",
"5+	c #7C746E",
"6+	c #8C837A",
"7+	c #877D73",
"8+	c #393834",
"9+	c #383934",
"0+	c #605B58",
"a+	c #756E69",
"b+	c #433F3A",
"c+	c #36332E",
"d+	c #867C72",
"e+	c #9A9188",
"f+	c #3E3C38",
"g+	c #817A71",
"h+	c #8E877F",
"i+	c #807973",
"j+	c #33322E",
"k+	c #9A8E86",
"l+	c #7B7268",
"m+	c #827871",
"n+	c #BCAEA4",
"o+	c #979085",
"p+	c #C6B8AB",
"q+	c #D5C5BC",
"r+	c #C0B2A6",
"s+	c #938981",
"t+	c #9E9188",
"u+	c #BDACA2",
"v+	c #9C8F87",
"w+	c #988E83",
"x+	c #968B82",
"y+	c #BEB2A7",
"z+	c #BEADA4",
"A+	c #726C66",
"B+	c #353731",
"C+	c #DBCAC0",
"D+	c #D1C2B7",
"E+	c #C7B5AB",
"F+	c #47433F",
"G+	c #B2A499",
"H+	c #36322E",
"I+	c #D8C7BF",
"J+	c #B5A79B",
"K+	c #B2A49B",
"L+	c #B8AA9F",
"M+	c #B6AA9E",
"N+	c #353834",
"O+	c #B0A69D",
"P+	c #373632",
"Q+	c #B1A59B",
"R+	c #AF9F97",
"S+	c #353734",
"T+	c #D2C4BB",
"U+	c #7A7067",
"V+	c #68645F",
"W+	c #867D75",
"X+	c #7C736A",
"Y+	c #383734",
"Z+	c #978C88",
"`+	c #9D928D",
" @	c #88847D",
".@	c #34312C",
"+@	c #383531",
"@@	c #65605C",
"#@	c #615C57",
"$@	c #36332F",
"%@	c #44403C",
"&@	c #79756F",
"*@	c #7E7973",
"=@	c #7A726C",
"-@	c #9A8E85",
";@	c #9F938A",
">@	c #AEA097",
",@	c #AA9D94",
"'@	c #989086",
")@	c #807971",
"!@	c #9B8F86",
"~@	c #AB9E95",
"{@	c #BEB1A5",
"]@	c #BCAEA5",
"^@	c #B9ADA4",
"/@	c #3D3834",
"(@	c #8B8078",
"_@	c #BCB0A4",
":@	c #CBBBB3",
"<@	c #AA9C94",
"[@	c #988A81",
"}@	c #D2C3B9",
"|@	c #AEA298",
"1@	c #7E756F",
"2@	c #7F7873",
"3@	c #9A9087",
"4@	c #968D84",
"5@	c #867D74",
"6@	c #BDABA2",
"7@	c #7E756C",
"8@	c #B0A29A",
"9@	c #D9C8BE",
"0@	c #BEB1A7",
"a@	c #BFB3A7",
"b@	c #B0A498",
"c@	c #373834",
"d@	c #AFA198",
"e@	c #9B8E85",
"f@	c #3F3C37",
"g@	c #978B82",
"h@	c #988F88",
"i@	c #968C82",
"j@	c #998F85",
"k@	c #988F84",
"l@	c #8C8279",
"m@	c #988C84",
"n@	c #5D5952",
"o@	c #C7B9B0",
"p@	c #383834",
"q@	c #353936",
"r@	c #343936",
"s@	c #9E938A",
"t@	c #998C84",
"u@	c #7D716B",
"v@	c #383833",
"w@	c #978D86",
"x@	c #988F86",
"y@	c #968C85",
"z@	c #746D69",
"A@	c #373833",
"B@	c #33322D",
"C@	c #3A3532",
"D@	c #383632",
"E@	c #34322D",
"F@	c #978F84",
"G@	c #968D85",
"H@	c #423D37",
"I@	c #7F7C76",
"J@	c #D4C3B9",
"K@	c #BFB1A8",
"L@	c #BCABA1",
"M@	c #D2C1B7",
"N@	c #827972",
"O@	c #D8C6BC",
"P@	c #A69C92",
"Q@	c #C2B2A7",
"R@	c #32322E",
"S@	c #BFB1A7",
"T@	c #B2A69A",
"U@	c #C0AFA5",
"V@	c #7B746D",
"W@	c #BEB1A8",
"X@	c #988F85",
"  . + @ # $ % $ & * = - ; > , ' - - ) ! ~ { ] . ^ / ( _ + : ! < ",
"[ } | 1 . 2 - 3 4 5 6 7 ( ( { / / { ( 8 9 0 a b c d 1 e f g h i ",
"- - j k . l - - m 1 n ( ( ( o ( p ( o q [ b - - r s t - - - - - ",
"- - u 1 v w b b x 9 y { / ( / z { A ( B C - b l D $ - r E - - F ",
"- m G H I J ( K { L ( > M N O ( ( ( P Q R { ( { ( S - b - T b - ",
"( ( ( U V W ( { o 1 X ( { ( ( ( { { Y Z ` { /  .( ..( ( { { ( { ",
"+.{ ( @.#.$.Z %.&.*.| $ =.d 9 -.;.>.1 $ ,.'.).!.$ ~.{ ( { { ( ( ",
"{.( { ].] b r ^./.l (.- m _.>.:.b <.b [.-.- l b }.9 ( / |.A ( / ",
"{ { 1.2.( ] 3.- - b b b 4.5.6.m r 7.b - % b - w - & 8.( 9.( ( { ",
"$ 0.a.b.{ { o ( c.d.{ { ( J d - - e.- b f.g.b - - ~.*.1 h.i.a.j.",
"k.l.C m.n.o.p.q.r.1 < $ $ j.1 n { { ] s.t.- u.- - v.- b j l j w.",
". (.b - j m - - - x.y.m l b 9 o / ( ( / % - - - z.A.d.( b - b B.",
"C.( / { D.( ( ( { a.- b E.c.*.F.( / { G.H.V ( o I.J.( ( / ( ( K.",
"L.M.N.O.P.Q.R.S.T.U.- V.b W.X.Y.~ Z.`. +.+{ ( ++( @+1 #+$+%+&+~.",
"*+=+. 9 } -+;+>+,+1 { - - - $ - - c.- 3 .+{ / ( ( [ '+- 7.- ] - ",
"b - m )+- b - - !+1 K { ~+{+k F 7.m - b $ { / { ( ]+} m j ^+- - ",
"( n ( ~ - D.c.] /+1 { { x ( % ( ( (+] ( _+( / :+( <+[+( J { d.( ",
"( A }+|+- - b - D.9 { ( { / 1+2+{ 3+( / 4+( / { / . 5+{ { ] ( { ",
"6+7+8+9+b b 4 - > 1 0+a+b+c+1 d+{ |.<+e+1 f+g+h+i+j+1 k+P.. l+m+",
"n+[.o+>.{ ( { / { r.- - j p+q+r+} s+. q $ A.t+u+- v+w+. x+y+z+b ",
"b G - $ ( ( ( { { A+- D.m - - - - b b b B+e.- D.- C+D+E+C b r l ",
"3+/ { k ( ( _ ( { F+/ { K.G+{ { ( { ( ( H+I+J+K+(.- L+M+- :.F G+",
"D.( ( N+( ( o o O+P+Q+{ > R+( ( { ( ( ( S++ ( ( ( ( { ( <+/ (+T+",
"3+U+V+1 W++ X+Y+4+4+9 Z+`+ @.@>.0.+@@@#@1 $@%@#@&@*@=@-@;@>@,@{ ",
"'@+ )@N+w n.+ -@!@~@{@]@^@/@(@_@m :@<@[@= - b }@|@1@_+2@3@+ 4@5@",
"- r - *.C - - 6@b T - - m 7@8@C 9@- 0@> b - - b - b < - a@- - b ",
"( o b@c@( ( ( / o (.<+D.d@e@. z { / ( ( ( A / / ( { f@( Q+( o { ",
"( o g@$ h@+ i@j@k@+ { / ]+l@d ( y.O { / o ( ( ( ( m@n@/ o@ .( ( ",
"p@q@r@s@t@. [ u@v@1 w@. x@y@z@j+9+A@B@1 C@D@;.E@$ $ 1 $ $ 1 1 1 ",
"F@m - - b > - - G@H@- - - - b b b b m Y+I@J@b - - F K@, L@n+q X.",
"- l M@b , - - - m N@- - - O@- l l u+b ! E.- - b m - - b P@Q@j R@",
"S@/ T@6 T@{ o / / %+- o b U@b - m - T V@W@m b b b b b - - - b X@"};
