/* XPM */
static char *e78548c919c24410e4072bddc61f603aeNX5ZGtSrlvQmhas[] = {
/* columns rows colors chars-per-pixel */
"64 64 192 2 ",
"   c #2E2E29",
".  c #322F2A",
"X  c #383127",
"o  c #34322C",
"O  c #3B352D",
"+  c #39392F",
"@  c #363631",
"#  c #393631",
"$  c #363C32",
"%  c #3C3B34",
"&  c #3F3E3B",
"*  c #41392F",
"=  c #433D35",
"-  c #483D37",
";  c #423F3A",
":  c #3F403A",
">  c #444037",
",  c #4A4037",
"<  c #44423B",
"1  c #4B443C",
"2  c #4B493E",
"3  c #50473D",
"4  c #52493F",
"5  c #464541",
"6  c #4B4642",
"7  c #474840",
"8  c #4D4B44",
"9  c #4E4D4A",
"0  c #514741",
"q  c #544C44",
"w  c #584E45",
"e  c #524E49",
"r  c #594F48",
"t  c #4E5145",
"y  c #4F5249",
"u  c #545146",
"i  c #5A5047",
"p  c #55524B",
"a  c #5A534B",
"s  c #55594B",
"d  c #5D594F",
"f  c #4F5150",
"g  c #565552",
"h  c #5B5551",
"j  c #565952",
"k  c #5E5A53",
"l  c #60544D",
"z  c #62594F",
"x  c #615650",
"c  c #635C53",
"v  c #695E53",
"b  c #655E5A",
"n  c #685F58",
"m  c #666156",
"M  c #696057",
"N  c #64625C",
"B  c #6C645C",
"V  c #6D695F",
"C  c #71645E",
"Z  c #72695E",
"A  c #6C6763",
"S  c #6E6961",
"D  c #716560",
"F  c #746C64",
"G  c #796E65",
"H  c #746F69",
"J  c #7A6F6A",
"K  c #757167",
"L  c #7A7066",
"P  c #74716A",
"I  c #7C736C",
"U  c #7F7A6E",
"Y  c #767571",
"T  c #7C7771",
"R  c #777872",
"E  c #7E7A72",
"W  c #817567",
"Q  c #82766D",
"!  c #82796F",
"~  c #827671",
"^  c #847C73",
"/  c #8A7E75",
"(  c #867E79",
")  c #8B7E79",
"_  c #858176",
"`  c #8A8177",
"'  c #86827B",
"]  c #8C847B",
"[  c #8E887C",
"{  c #908277",
"}  c #92857D",
"|  c #93897E",
" . c #98897C",
".. c #8F8681",
"X. c #8E8982",
"o. c #8F8E89",
"O. c #938781",
"+. c #948B83",
"@. c #9A8D85",
"#. c #948E89",
"$. c #998F88",
"%. c #969085",
"&. c #9A9186",
"*. c #96918A",
"=. c #9C938A",
"-. c #9F998E",
";. c #9E9591",
":. c #9F9A91",
">. c #A09285",
",. c #A2968D",
"<. c #A3998E",
"1. c #A99B8F",
"2. c #A29691",
"3. c #A49B92",
"4. c #AA9D94",
"5. c #A59D99",
"6. c #AC9F99",
"7. c #B09F95",
"8. c #B19F98",
"9. c #ACA196",
"0. c #A7A199",
"q. c #ADA39A",
"w. c #ADA89E",
"e. c #B2A296",
"r. c #BBA897",
"t. c #B3A59C",
"y. c #B9A79E",
"u. c #B4A99E",
"i. c #BAAA9E",
"p. c #ADA4A0",
"a. c #AFA9A1",
"s. c #B3A7A1",
"d. c #BAA7A0",
"f. c #B5ABA2",
"g. c #B9ABA2",
"h. c #B8AAA1",
"j. c #BCABA1",
"k. c #B9ADA1",
"l. c #BAADA3",
"z. c #BBADA4",
"x. c #B8AEA4",
"c. c #BDADA5",
"v. c #BBADA3",
"b. c #B4ACA8",
"n. c #BBAFA8",
"m. c #B8B0A3",
"M. c #B9B1A6",
"N. c #BBB3A6",
"B. c #BCB0A4",
"V. c #BDB0A7",
"C. c #BFB1A6",
"Z. c #BEB0A5",
"A. c #BDB1A6",
"S. c #B6B1AB",
"D. c #BEB1A8",
"F. c #BFB2A9",
"G. c #BEB4AB",
"H. c #BDB6AA",
"J. c #BFB5AC",
"K. c #BDB3AA",
"L. c #BEB8AC",
"P. c #BFB6B1",
"I. c #C2AE9F",
"U. c #C0AFA7",
"Y. c #C1AFA4",
"T. c #C2B1A5",
"R. c #C1B3AA",
"E. c #C3B2AA",
"W. c #C4B3AA",
"Q. c #C1B7AD",
"!. c #C4B6AD",
"~. c #C2B4AA",
"^. c #C8B7AF",
"/. c #C8B7AD",
"(. c #C3B9AF",
"). c #C5B8AF",
"_. c #C4B8AD",
"`. c #CAB9AE",
"'. c #C2B7B1",
"]. c #C4BBB2",
"[. c #C3BDB1",
"{. c #C5BBB2",
"}. c #CBBCB2",
"|. c #CABFB9",
" X c #D1BEB4",
".X c #CDC1B5",
"XX c #CAC1B8",
"oX c #CFC7BC",
"OX c #CCC3BB",
"+X c #D4C1B6",
"@X c #D3C2BA",
"#X c #D2C8BF",
/* pixels */
"I ^ X.;.*.o.' R Y N < @ . o o o   : N X.f.[.G.f.9.<.<.9.f.M.m.f.c.c.E.g.<.+./ I ^ ] 3.6.6.3.@.,.3.q.q.t.f.q.=.+.+.} Q I ~ V 1 O ",
"E ( +.#.^ T H H P P N k i p p i e e c ~ q.].Q.B.e.4.1.9.l.B.l.i.g.z.F.x.5.+.^ F Z I 3.x.9.4.<.<.5.&.+.+.+.+.+.] ] ] ^ Q U V a w ",
"/ | +.^ k 1 1 d E *.3.3.*.*.*.+.( F r c &.F.W.W.y.e.7.t.i.c.i.y.t.u.f.s.q.=.^ V q m q.OXM.f.z.q.3.^ M w 0 x G Q ^ / ] ` ! I I ~ ",
"&.,.,.] B 2 O q ~ 9.G.].G.J.G.F.p.] q q } g.Y.E.i.u.t.t.u.u.u.y.f.g.u.t.q.3.^ Z 0 B q.oXQ.G.Q.g.5.^ 0 * q B ^ } { | @.@.} } *.3.",
"l.i.u.t.3.! 2 2 I <.f.G.B.F.B.B.S.#.i w +.s.i.f.i.i.i.u.e.e.t.f./.!.g.t.u.3.` I G ] u._.B.z.c.l.s.| i a +.f.t.9.t.9.u.u.9.9.u.f.",
"_.R.B._.{.<.a 1 ` 9.f.B.c.B.c.T.S.=.a i +.q.q.q.t.u.s.t.9.9.t.f.`./.y.9.t.3.] ^ @.3.f.c.F.c.j.Y.K.,.d n s.#X].c.c.g.c.Q.E.E.Q.F.",
"B.B.B.Q.XX9.c a &.z.B.B.B.E.Y.T.S.;.a i +.q.q.q.q.u.u.t.9.9.t.f.B.c.6.3.q.,.] ] 3.f.f.z.Q.F.B.Q.[.9.z d 3.].Q.c.9.9.i.B.E.E.T.c.",
"B.B.l.G.XX9.l q &.M.G.l.l.T.c.c.S.*.a a +.t.t.9.q.q.t.t.e.9.t.g.i.i.<.<.9.=.` [ q.M.x.s.M.l.M.G.[.5.d i @.F.E.f.9.t.c.W.W.T.c.c.",
"c.F.c.G.].,.i 3 ~ <.f.c.g.t.u.y.s.+.q r @.f.t.4.9.e.t.t.t.t.u.f.t.9.u.9.&.] ^ ] 5.w.z.u.t.u.t.f.S.%.w w &.Q.K.z.l.Q.}..XQ.Y.T.c.",
"l.z.z.F.J.&.w 3 ~ 3.t.t.t.t.e.t.t.O.q q } t.u.t.6.e.u.s.f.s.u.s.e.t.l.u.,.} ~ ^ 3.q.f.q.e.t.t.f.a.X.w w +.F.z.l.B.Q.}.{.B.j.c.c.",
"g.u.t.f.s.+.i i X.q.f.t.f.f.u.s.f.+.r q ~ 2.9.t.t.s.u.u.g.f.u.u.u.u.f.f.9.&./ ^ @.9.t.u.g.i.g.c.S.#.w q } x.x.u.l.l.B.c.t.t.u.i.",
"g.t.q.t.q.+.d w ~ *.3.3.3.3.4.4.5.` w , n ~ ] +.+.+.O.+.+.+.O.] | } O.+.O.^ F V U ] } +.@.+.@.@.*.I 2 w } f.f.q.t.t.t.t.9.e.t.t.",
"f.u.u.s.s.*.i , d V ~ ` ^ ^ | +.X.F 1 O > 8 u i e e r a p p r e 0 w r i w 6 1 1 e i i d i q w i q 6 = i +.s.u.q.t.e.9.e.i.f.u.t.",
"u.s.u.t.f.*.i > a V ~ ] ` ` +.+.` K b i i i i i i e e 1 O % 8 r r i i i i i p 9 % # e k d i r a h i = i +.s.t.q.t.q.9.9.f.g.t.e.",
"u.y.t.t.t.+.w 0 I +.3.4.9.9.9.4.@.+.+.*.+.*.=.*.*.+.` S , 0 U #.&.+.+.*.*.-.=.^ 8 q ^ -.=.*.@.-.0.] w w +.s.q.q.t.q.4.9.u.s.q.9.",
"u.y.u.i.i.} 0 q ] q.f.f.].].c.g.4.4.z.Q.n.F.K.K.J.f.q./ 0 a $.Q.F.F.F.].P.].J.=.i a *.P.K.R.F.{.OX5.h w ..s.q.u.u.t.q.9.u.s.q.t.",
"f.t.s.f.x.} q 0 +.u.9.u. X+X/.j.r.i.x.K.G.Q.B.c.l.B.B.+.i i &.T.m.T. X+XQ.F.J.&.s p &.E.Q.Q.E.F.].2.a 6 ( 5.q.f.f.f.s.s.f.s.s.b.",
"+.+.+.+.+.U i d +.q.9.t.{.}.`.T.Y.c.n.K.K.B.l.f.B.B.F.*.i i &.T.N.W. X@XW.M.G.&.u u &.E.F.F.B.E.M.@.i < S ` ] *.-.5.5.-.+.+.X.#.",
"u e i u i a d K <.u.q.u.f.f.z.l.W.F.S.b.s.f.g.f.u.f.M.*.e e &.T.N./.+X@X!.B.G.&.8 e &.E.F.c.c.E.L.=.a O < 8 e k K ^ ! B a e e u ",
"o + 8 e u m I #.3.9.3.-.+.] +.+.@.@.*.#.+.} +.| ] +.+.T 8 e +.c.B.W. X}.c.g.B.&.t u &.E.W.E.Y.T.G.<.B 2 e e i b U _ ! Z z q 1 > ",
"o < B _ #.:.9.9.-.=.+.^ m q w u w i p p a i w w q r q 6 & g +.f.t.i.Y.c.u.e.f.+.u u &.!.`.`.W.T.c.3.^ U } +.&.,.9.9.9.3.,.] F c ",
"8 b ] q.x.G.G.l.3.<.&.` B i i i i 0 % @ 6 i w a r a w 6 ; g X.s.q.e.u.t.8.9.q.+.p u &.!.{.`.W.T.W.e.{ } e.F.F.F.E.Y.c.W.W.u.@./ ",
"^ +.6.z.z.c.W.T.i.t.u.e.<.&.&.=.,.~ 9 5 H +.+.&.=.2.*.T 9 p X.t.9.t.t.t.t.q.q.O.t i &.R.W.E.T.T.W.e./ ^ 4.n.z.g.T.Y.c.T.W.B.t.9.",
"+.;.q.z.c.j.Y.Y.j.y.c.E.F.E.E.J.].*.g 9 X.z.z.F.K.J.K.*.p 9 #.s.w.t.u.s.s.s.s...6 e &.E.c.l.c.T.!.t./ ^ 4.n.f.t.t.g.c.Y.T.B.F.Q.",
") O.6.g.g.u.d.g.t.e.e.u.g.z.f.f.f.*.h h =.B.B.B.Q.E.E.*.e e +.l.f.s.u.s.z.s.p...6 e +.z.c.i.t.i.z.9.] ] 5.b.a.w.q.u.f.l.f.f.f.f.",
"B I =.t.t.u.g.t.3.<.4.3.4.4.3.-.+.U e k -.Q.B.l.l.B.F.+.p 6 ~ <.3.3.2.,.$.+.X.H < u +.u.i.t.9.e.M.q.] E ' #.;.:.-.<.3.3.3.-.%.X.",
", x +.q.9.t.u.9.,.&.&.+.] ] ] Q z 2 % h -._.W.T.Y.W.B.+.h ; d Z U ` ) I c 0 i 1 $ 9 +.t.t.9.<.,.q.3.^ N h N T ] ^ ^ ^ ` ~ G c e ",
"i V +.5.5.<.+.+.%.%.%.| ` ` ^ F 3 X o h *./.W.W.Y.T.B.&.d ; x Z U ` { W c 0 a 8 $ u +.t.s.9.<.<.e.2.( B e h T +.| } ] / ! F c i ",
"&.&.*.=.<.] n c ^ +.*.=.&.+.] L i # o p +.B.Y.T.T.T.Q.&.i 8 ^ 3.9.9.6.4.,.*.*.~ 8 p +.t.u.9.6.e.u.4.@.~ D J 2.g.E.c.t.4.,.@.&.&.",
"B.i.9.<.9.` e w ^ =.3.5.4.3.<.| G d & e ] f.j.Y.T.c.B.+.e e *.Q.{._.E.Y.R.Q.J.-.p i ..t.t.9.e.u.t.8.,.O./ O.s.{.@X X`.Y.y.u.c.!.",
"c.c.c.i.z.$.n B -.f.s.u.g.i.i.t.4.' p g +.s.u.g.i.t.e.` e p *.(..X}./.Y.Y.F.K.*.y e O.f.u.t.u.u.y.u.4.,.@.@.t.F.W.`.`.W.c.l.B.G.",
"I.i.T.g.c.3.J J 3.K.z.g.c.c.Y.Y.z.*.p 9 #.u.u.u.i.g.9.^ 9 p #.{..X}.W.y.j.F.z.@.p e +.f.t.u.c.g.i.i.9.3.*.&.9.u.i.B._.R.B.i.f.f.",
"y.g.u.z.f.3.) ) 4.c.e.e.c.i.t.6.3.^ 8 u +.u.t.f.n.c.t.[ u e +.z.z.i.g.u.7.9.i.+.i w } f.u.j.}./.f.t.q.3.} ] 3.9.f.g.c.c.f.u.y.y.",
"y.u.9.9.9.3.O.O.9.l.e.t.T.j.u.6.&.U 8 i +.s.t.s.z.c.z.+.e 8 +.g.i.t.t.9.3.6.u.+.e r +.f.s.g./.`.x.u.q.=.^ ^ <.q.f.u.t.t.e.t.u.u.",
"j.i.9.5.-.-.$.-.u.c.i.i.T.c.g.e.9.^ 8 u X.f.f.a.q.t.f.%.e 9 +.e.t.t.u.e.9.q.s.+.e p #.b.f.u.Y.Y.s.q.3.+.^ ` 9.x.t.q.4.9.t.f.f.u.",
"3.1.<.@.^ E U +.t.F.B.l.i.i.z.z.s.` 6 6 E <.3.;.+.| | I 6 9 ] 6.q.t.u.t.t.u.s.] e q T *.2.2.6.4.5.*.^ G V I -.s.5.3.3.3.3.3.3.<.",
"{ { } ~ x 8 1 B 3.K.G.t.1.3.f.M.q.` 8 & b I I I B z q , # 6 I @.q.q.s.f.f.t.0.^ e % e N I ] @.@.O.I a - - x ] 2.-.&.*.+.` / / / ",
" .| +.^ b > X u +.M.B.e.,.<.u.M.q.] 9 & m I U ~ C c w u k B ~ @.3.5.4.9.9.3.*.G 8 o ; a F ) @.@.| I a , , c ^ +.+.+.=.*.} ` ] ] ",
"9.t.q.3.] B = u +.f.l.t.9.9.u.f.t.[ e 8 ` 9.4.4.,.&.&.3.0.w.t.e.&.&.&.&.=.+.] V 6 ; k H ..&.4.6.e.<.{ Q Q ^ } | | *.q.u.9.4.9.9.",
"c.B.F.x.q.] 8 q +.t.u.t.i.t.q.q.u.+.k b <.Q.c.z.c.l._.{.[.OX{.g.3.,.&.&.&.+.] G 1 e I +.3.6.e.g.z.l.t.e.9.4.4.,.&.3.f.F.F.M.F.E.",
"Y.B.z.z.x.#.a w +.t.t.i.i.i.t.9.t.*.G U 3.c.u.e.g.W.`.Q.J.J.E.W.f.f.i.t.u.t.e.} w i -.J.z.f.e.e.j.W.}.}.{.W.B.i.i.i.T.R.B.T.T.T.",
"g.l.z.F.K.*.d i +.f.u.e.6.6.9.t.i.-.P I 3.i.e.6.d.c.i.i.f.x.z.j.f.l.B.c.B.F.F.=.w d q.oX].g.e.e.y.T. X@X.X{._.Q.B.B.T.T.c.c.c.i.",
"y.i.f.f.s...r w | s.t.9.<.<.6.t.9.*.B m &.e.6.e.u.y.i.t.u.t.t.y.t.u.l.i.i.i.f.+.q l q.#XQ.u.e.e.i.T.{.{.E.c.c.g.T.B.B.c.i.i.i.i.",
"e.t.t.s.s.] w w +.f.f.6.,.<.6.u.f.+.d p +.i.t.i.e.7.e.t.u.q.e.e.q.q.t.t.t.f.f.+.w i -.'.M.t.t.t.i.l.c.l.u.t.i.i.g.i.i.i.i.i.c.c.",
"4.6.t.f.x.+.i w +.z.f.t.6.9.f.M.M.+.u u +.l.u.q.6.4.3.t.f.x.z.d.f.u.t.t.u.f.x.+.e 8 ` w.b.f.u.t.u.u.f.f.u.i.g.g.u.u.i.i.u.i.T.W.",
"3.3.<.3.3.` 0 0 ` q.9.9.3.=.+.+.+.P 8 6 K *.4.q.3.<.3.3.*.X.+.O.+.+.} | &.,.3.^ 9 < N E #.=.=.=.,.3.5.5.3.4.9.9.9.9.t.t.t.i.Q.{.",
"e.<.| ~ E V > 8 I &.*.=.] L x w w 6 % @ > n ` ;.2.=.@.^ k 8 w r e w w d D F H b < # ; 6 p b V G ^ ` ] ] ^ ] &.<.,.3.4.6.4.9.g.c.",
"t.<.` F S b = q K +.+.+.` F i 8 6 8 9 9 8 n O.5.5.#.^ B 6 < r r i d i x F S F b b h h e h n F ! ~ ^ ^ I V F ^ +.$.&.2.3.3.3.3.3.",
"<.@.} / I B 2 i ] 3.-.&.} ` / W W ! /  .@.,.9.i.i.@.v 4 n Q | &.@.&.3.3.&.{ / { <.3.,.@.@.<.t.u.5.*.^ A e e P X.*.*.=.=.&.+.} ] ",
"4.4.<.&.+.I 0 d *.q.5.,.=.<.<.<.4.4.e.g.B.E.E.T.c.@.v l Q =.u.G.].}.}.`.i.1.,.<.E.{.!.E.Q.].}.}.z.9.@.J 2 1 P +.=.=.,.<.,.&.@.| ",
"t.u.f.x.t.] i h 3.J.f.t.t.f.i.u.f.F.{.}.{.W.T.c.B.3.Q L @.9.z.Q.}..X}.Q.c.t.3.9.l.Q.B.c.F.E.Q.F.W.c.i.} q w } s.t.i.i.i.i.t.e.9.",
"z.M.F.Q.J.+.i i $.K.K.x.c.c.g.i.g.E.}.}.Q.l.g.g.g.9.| { ,.9.s.M.}.}.B.l.B.l.t.9.i.l.i.u.i.l.l.l.l.c.E.*.r i @.K.f.l.B.c.c.c.z.z.",
"q.q.q.s.x.+.i i +.z.x.f.f.g.u.i.f.z.F.c.g.u.e.9.9.4.@.+.-.3.q.s.c.B.i.t.l.l.e.9.t.i.9.9.t.t.i.i.i.f.K.*.i a *.x.f.f.f.f.u.u.s.x.",
"q.q.q.a.q.] w 0 ] q.9.9.9.6.4.4.9.9.t.t.9.6.4.4.9.4.@.] ~ ` 5.x.e.i.u.t.f.i.u.i.e.t.6.9.t.t.u.t.t.q.q...h c *.b.z.z.f.u.q.q.a.b.",
"s.s.s.q.:.^ q q U *.&.,.<.<.,.&.$.=.<.5.9.9.q.t.9.3.+.G a B *.x.u.g.g.g.u.t.u.g.u.f.t.i.g.i.i.u.f.t.3.] B V *.a.G.B.l.i.t.t.u.s.",
"+.#.+.` E F i n ^ @.+.@.+.O.| { ~ U ~ ] -.9.q.5.4.,.+.I w i ~ +.@.| +.+.} } +.@.} +.| +.@.| | {  . ./ G x c ! +.,.>.@. .| | +.+.",
"w u i w 2 i G ` +.$.@.+.+.} ^ G a 4 0 n ^ =.2.,.-.-.@./ F d w w q u 8 8 7 y p j u u 9 9 6 2 9 9 p e 8 5 & < 9 p p e p p g g g f ",
"0 q w w i V ] 3.3.2.=.@.@.@.{ Q c 2 O q ^ 2.3.2.3.3.3.-.| L x 0 u i e u u 9 % @ < 6 u p i e i i r i d h p p a d i w a i 6 < @ o ",
"I ^ +.*.&.3.t.z.f.t.4.4.9.i.e.<./ n - i | f.f.t.f.e.9.9.q.4.-.+.+.*.*.-.*.E 9 % h T =.5.-.+.&.*.@.&.=.-.=.=.&.*.=.*.&.] F a = % ",
",.4.f.G.Q.Q.E.F.n.g.t.t.g.E.Q.B.q.` c B <.Q.F.z.c.F.Q.E.F.F.J.Q.c.E.E.'.J.;.n r I 3.P.|.'.c.F.E.Q.F.G.G.F.F.F.M.M.M.K.q.+.F 1 o ",
"f.x.F.!.}.}.Q.B.Q.E.c.g.l.B.F.F.z.3.Q ! 6.F.l.c.c.{.@X.XQ.l.l.c.Y.E.E.E.Q.4.I I 2.s.F.R.R.E.W.Y.F.B.G.J.J.F.M.f.q.u.F.G.f.] e   ",
"B.B.c.F.!.Q.g.t.B.B.c.l.g.l.z.z.x.q.} } t.F.i.c.T.{..X}.E.l.c.F.c.c.c.c.E.t./ O.t.n.z.g.c.Y.T.c.l.l.c.F.M.z.z.f.q.t.z.Q.J.:.N 5 ",
"E.F.f.u.g.l.i.g.u.t.t.t.i.i.i.i.t.3.] { e.B.i.i.c.T.W.W.T.c.c.c.Y.c.T.W.`.c.{ } 9.n.E.B.E.T.Y.Y.T.Y.T.B.l.c.B.T.i.i.i.c.Q.q.] T ",
"F.c.u.9.t.t.t.i.y.t.e.t.i.u.t.9.q.&.^ / 9.B.i.e.i.c.T.T.T.T.Y.c.Y.i.c.W.}.W.| ] 9.c.B.B.W.T.i.I.I.Y.T.T.i.i.T.T.T.T.T.i.B.t.=.=."
};
